<svg width="120" height="120" viewBox="0 0 607 607" fill="none" xmlns="http://www.w3.org/2000/svg">
<circle cx="303.5" cy="303.5" r="303.5" fill="white"/>
<path fill-rule="evenodd" clip-rule="evenodd" d="M213.003 111.075C219.18 117.252 222.204 125.388 222.074 133.483L303.5 214.908L338.248 180.16C338.119 172.065 341.142 163.929 347.319 157.753C359.42 145.652 379.038 145.652 391.139 157.753C403.239 169.853 403.239 189.472 391.139 201.572C384.962 207.749 376.826 210.773 368.731 210.643L334.481 244.894C334.61 252.989 331.586 261.124 325.41 267.301C313.309 279.402 293.691 279.402 281.59 267.301C275.413 261.124 272.389 252.989 272.519 244.894L191.591 163.966C183.496 164.095 175.36 161.072 169.184 154.895C157.083 142.794 157.083 123.176 169.184 111.075C181.284 98.9749 200.903 98.9749 213.003 111.075ZM201.572 215.861C189.472 203.761 169.853 203.761 157.753 215.861C145.652 227.962 145.652 247.58 157.753 259.681C163.929 265.857 172.065 268.881 180.16 268.752L214.908 303.5L133.483 384.926C125.388 384.796 117.252 387.82 111.075 393.997C98.9749 406.097 98.9749 425.716 111.075 437.816C123.176 449.917 142.794 449.917 154.895 437.816C161.072 431.64 164.095 423.504 163.966 415.409L244.894 334.481C252.989 334.61 261.124 331.587 267.301 325.41C279.402 313.309 279.402 293.691 267.301 281.59C261.124 275.414 252.989 272.39 244.894 272.519L210.643 238.269C210.773 230.174 207.749 222.038 201.572 215.861ZM415.409 443.034L334.481 362.107C334.61 354.012 331.587 345.876 325.41 339.699C313.309 327.598 293.691 327.598 281.59 339.699C275.413 345.876 272.39 354.012 272.519 362.107L238.269 396.357C230.174 396.227 222.038 399.251 215.861 405.428C203.761 417.529 203.761 437.147 215.861 449.248C227.961 461.348 247.58 461.348 259.68 449.248C265.857 443.071 268.881 434.935 268.752 426.84L303.5 392.092L384.925 473.517C384.796 481.612 387.82 489.748 393.997 495.925C406.097 508.025 425.716 508.025 437.816 495.925C449.917 483.824 449.917 464.206 437.816 452.105C431.639 445.929 423.503 442.905 415.409 443.034ZM495.925 213.003C489.748 219.18 481.612 222.204 473.517 222.075L392.092 303.5L426.84 338.248C434.935 338.119 443.071 341.143 449.247 347.32C461.348 359.42 461.348 379.039 449.247 391.139C437.147 403.24 417.528 403.24 405.428 391.139C399.251 384.962 396.227 376.826 396.357 368.731L362.106 334.481C354.011 334.61 345.875 331.587 339.699 325.41C327.598 313.309 327.598 293.691 339.699 281.59C345.875 275.413 354.011 272.39 362.106 272.519L443.034 191.592C442.905 183.497 445.928 175.361 452.105 169.184C464.206 157.083 483.824 157.083 495.925 169.184C508.025 181.284 508.025 200.903 495.925 213.003Z" fill="#355DFF"/>
</svg>
