<svg width="120" height="120" viewBox="0 0 530 530" fill="none" xmlns="http://www.w3.org/2000/svg">
<rect width="530" height="530" rx="150" fill="white"/>
<path fill-rule="evenodd" clip-rule="evenodd" d="M183.884 93.0845C189.386 98.5869 192.08 105.835 191.965 113.046L264.5 185.581L295.454 154.627C295.339 147.416 298.033 140.168 303.535 134.665C314.314 123.886 331.791 123.886 342.57 134.665C353.35 145.445 353.35 162.921 342.57 173.701C337.068 179.203 329.82 181.897 322.609 181.782L292.098 212.292C292.214 219.503 289.52 226.751 284.018 232.254C273.238 243.033 255.762 243.033 244.982 232.254C239.48 226.751 236.786 219.503 236.901 212.292L164.81 140.201C157.598 140.316 150.351 137.622 144.848 132.12C134.069 121.34 134.069 103.864 144.848 93.0845C155.628 82.3052 173.104 82.3052 183.884 93.0845ZM173.701 186.43C162.921 175.65 145.445 175.65 134.665 186.43C123.886 197.209 123.886 214.686 134.665 225.465C140.168 230.967 147.416 233.661 154.627 233.546L185.581 264.5L113.046 337.035C105.835 336.92 98.5869 339.614 93.0845 345.116C82.3052 355.896 82.3052 373.372 93.0845 384.152C103.864 394.931 121.34 394.931 132.12 384.152C137.622 378.649 140.316 371.402 140.201 364.19L212.292 292.099C219.503 292.214 226.751 289.52 232.254 284.018C243.033 273.238 243.033 255.762 232.254 244.982C226.751 239.48 219.503 236.786 212.292 236.902L181.782 206.391C181.897 199.18 179.203 191.932 173.701 186.43ZM364.19 388.8L292.099 316.708C292.214 309.497 289.52 302.249 284.018 296.747C273.238 285.967 255.762 285.967 244.982 296.747C239.48 302.249 236.786 309.497 236.902 316.708L206.391 347.219C199.18 347.103 191.932 349.797 186.43 355.299C175.65 366.079 175.65 383.555 186.43 394.335C197.209 405.114 214.686 405.114 225.465 394.335C230.967 388.832 233.661 381.585 233.546 374.374L264.5 343.419L337.035 415.955C336.92 423.166 339.614 430.413 345.116 435.916C355.896 446.695 373.372 446.695 384.152 435.916C394.931 425.136 394.931 407.66 384.152 396.881C378.649 391.378 371.401 388.684 364.19 388.8ZM435.916 183.884C430.413 189.386 423.166 192.08 415.954 191.965L343.419 264.5L374.373 295.454C381.585 295.339 388.832 298.033 394.335 303.535C405.114 314.315 405.114 331.791 394.335 342.571C383.555 353.35 366.079 353.35 355.299 342.571C349.797 337.068 347.103 329.82 347.218 322.609L316.708 292.099C309.497 292.214 302.249 289.52 296.746 284.018C285.967 273.238 285.967 255.762 296.746 244.982C302.249 239.48 309.497 236.786 316.708 236.902L388.799 164.81C388.684 157.599 391.378 150.351 396.88 144.849C407.66 134.069 425.136 134.069 435.916 144.849C446.695 155.628 446.695 173.105 435.916 183.884Z" fill="#355DFF"/>
</svg>
