<svg width="300" height="300" viewBox="0 0 300 300" fill="none" xmlns="http://www.w3.org/2000/svg">
<path fill-rule="evenodd" clip-rule="evenodd" d="M82.3968 6.73659C86.9819 11.3217 89.2264 17.3609 89.1305 23.3697L149.572 83.8112L175.365 58.0178C175.269 52.009 177.514 45.9698 182.099 41.3848C191.081 32.4027 205.644 32.4027 214.626 41.3848C223.608 50.3668 223.608 64.9296 214.626 73.9117C210.041 78.4967 204.001 80.7413 197.993 80.6453L172.569 106.069C172.665 112.078 170.421 118.117 165.835 122.702C156.853 131.684 142.29 131.684 133.308 122.702C128.723 118.117 126.479 112.078 126.575 106.069L66.503 45.9971C60.4942 46.0931 54.4549 43.8485 49.8698 39.2634C40.8878 30.2814 40.8878 15.7186 49.8698 6.73659C58.8519 -2.24553 73.4148 -2.24553 82.3968 6.73659ZM73.9117 84.5183C64.9297 75.5363 50.3668 75.5363 41.3847 84.5183C32.4027 93.5004 32.4027 108.063 41.3847 117.045C45.9697 121.63 52.009 123.875 58.0178 123.779L83.8111 149.572L23.3696 210.014C17.3608 209.918 11.3216 212.162 6.73654 216.747C-2.24551 225.729 -2.24551 240.292 6.73654 249.274C15.7186 258.256 30.2813 258.256 39.2634 249.274C43.8485 244.689 46.093 238.65 45.997 232.641L106.069 172.569C112.078 172.665 118.117 170.421 122.702 165.836C131.684 156.854 131.684 142.291 122.702 133.309C118.117 128.724 112.078 126.479 106.069 126.575L80.6454 101.152C80.7413 95.1427 78.4968 89.1034 73.9117 84.5183ZM232.641 253.147L172.569 193.075C172.665 187.067 170.421 181.027 165.836 176.442C156.853 167.46 142.291 167.46 133.309 176.442C128.723 181.027 126.479 187.067 126.575 193.075L101.151 218.499C95.1425 218.403 89.1034 220.648 84.5183 225.233C75.5362 234.215 75.5362 248.777 84.5183 257.76C93.5003 266.742 108.063 266.742 117.045 257.76C121.63 253.175 123.875 247.135 123.779 241.126L149.572 215.333L210.014 275.775C209.918 281.783 212.162 287.823 216.747 292.408C225.729 301.39 240.292 301.39 249.274 292.408C258.256 283.426 258.256 268.863 249.274 259.881C244.689 255.296 238.65 253.051 232.641 253.147ZM292.408 82.397C287.822 86.982 281.783 89.2265 275.775 89.1306L215.333 149.572L241.126 175.365C247.135 175.27 253.174 177.514 257.759 182.099C266.741 191.081 266.741 205.644 257.759 214.626C248.777 223.608 234.214 223.608 225.232 214.626C220.647 210.041 218.403 204.002 218.499 197.993L193.075 172.569C187.066 172.665 181.027 170.421 176.442 165.836C167.46 156.854 167.46 142.291 176.442 133.309C181.027 128.724 187.066 126.479 193.075 126.575L253.147 66.5031C253.051 60.4943 255.296 54.4552 259.881 49.8701C268.863 40.888 283.426 40.888 292.408 49.8701C301.39 58.8522 301.39 73.4149 292.408 82.397Z" fill="#355DFF"/>
</svg>
