<?xml version="1.0" encoding="UTF-8" standalone="no"?>
<svg
   xmlns:dc="http://purl.org/dc/elements/1.1/"
   xmlns:cc="http://creativecommons.org/ns#"
   xmlns:rdf="http://www.w3.org/1999/02/22-rdf-syntax-ns#"
   xmlns:svg="http://www.w3.org/2000/svg"
   xmlns="http://www.w3.org/2000/svg"
   xmlns:sodipodi="http://sodipodi.sourceforge.net/DTD/sodipodi-0.dtd"
   xmlns:inkscape="http://www.inkscape.org/namespaces/inkscape"
   width="256mm"
   height="256mm"
   viewBox="0 0 256 256"
   version="1.1"
   id="svg1008"
   inkscape:version="1.0 (4035a4f, 2020-05-01)"
   sodipodi:docname="Venus-Protocol-XVS-Coin-Icon-256x256.svg">
  <defs
     id="defs1002">
    <linearGradient
       gradientUnits="userSpaceOnUse"
       y2="17.097"
       x2="77.778"
       y1="71.669998"
       x1="9.2580004"
       id="tpaint0_linear">
      <stop
         id="stop964"
         stop-color="#F8B342" />
      <stop
         id="stop966"
         stop-color="#F2C35E"
         offset="1" />
    </linearGradient>
    <defs
       id="defs969">
      <linearGradient
         id="RESERVED_FOR_INKSCAPE_DUPLICATE_DEF_000000000"
         x1="9.2580004"
         y1="71.669998"
         x2="77.778"
         y2="17.097"
         gradientUnits="userSpaceOnUse">
        <stop
           stop-color="#F8B342"
           id="stop994" />
        <stop
           offset="1"
           stop-color="#F2C35E"
           id="stop996" />
      </linearGradient>
    </defs>
  </defs>
  <sodipodi:namedview
     id="base"
     pagecolor="#ffffff"
     bordercolor="#666666"
     borderopacity="1.0"
     inkscape:pageopacity="0.0"
     inkscape:pageshadow="2"
     inkscape:zoom="0.35"
     inkscape:cx="314.28572"
     inkscape:cy="500"
     inkscape:document-units="mm"
     inkscape:current-layer="layer1"
     inkscape:document-rotation="0"
     showgrid="false" />
  <metadata
     id="metadata1005">
    <rdf:RDF>
      <cc:Work
         rdf:about="">
        <dc:format>image/svg+xml</dc:format>
        <dc:type
           rdf:resource="http://purl.org/dc/dcmitype/StillImage" />
        <dc:title />
      </cc:Work>
    </rdf:RDF>
  </metadata>
  <g
     inkscape:label="Слой 1"
     inkscape:groupmode="layer"
     id="layer1">
    <g
       transform="scale(2.9090909)"
       id="g856">
      <path
         id="path960"
         fill="url(#tpaint0_linear)"
         d="M 44,88 C 68.3,88 88,68.3 88,44 88,19.7 68.3,0 44,0 19.7,0 0,19.7 0,44 0,68.3 19.7,88 44,88 Z"
         style="fill:url(#tpaint0_linear)" />
      <path
         id="path962"
         fill="#ffffff"
         d="M 66.453,46.45 H 21.548 a 2.724,2.724 0 0 0 -2.716,2.715 2.724,2.724 0 0 0 2.716,2.717 H 32.83 l 7.645,20.189 a 2.725,2.725 0 0 0 2.679,1.749 2.725,2.725 0 0 0 2.679,-1.749 l 7.645,-20.19 H 66.454 A 2.724,2.724 0 0 0 69.17,49.165 2.724,2.724 0 0 0 66.454,46.449 Z M 43.153,63.806 38.637,51.88 h 9.032 L 43.153,63.805 Z M 21.548,41.38 H 66.454 A 2.724,2.724 0 0 0 69.17,38.663 2.724,2.724 0 0 0 66.454,35.947 H 59.512 L 65.11,21.162 A 2.724,2.724 0 0 0 63.532,17.66 2.724,2.724 0 0 0 60.03,19.239 L 53.702,35.947 H 32.603 L 26.276,19.239 a 2.725,2.725 0 0 0 -3.502,-1.579 2.724,2.724 0 0 0 -1.578,3.502 l 5.599,14.785 h -5.247 a 2.724,2.724 0 0 0 -2.716,2.716 2.724,2.724 0 0 0 2.716,2.716 z" />
    </g>
  </g>
</svg>
