<?xml version="1.0" encoding="UTF-8"?>
<svg width="800px" height="800px" viewBox="0 0 800 800" version="1.1" xmlns="http://www.w3.org/2000/svg" xmlns:xlink="http://www.w3.org/1999/xlink">
    <title>token-btcb</title>
    <g id="token-btcb" stroke="none" stroke-width="1" fill="none" fill-rule="evenodd">
        <g id="bitcoin-btc-logo" transform="translate(80.000000, 80.000000)" fill-rule="nonzero">
            <path d="M629.692862,396.992783 C586.999384,568.243254 413.55049,672.462902 242.279706,629.758487 C71.080797,587.065009 -33.1388513,413.605177 9.57337649,242.368768 C52.2481046,71.0995469 225.696999,-33.1279139 396.914658,9.56556404 C568.172942,52.259042 672.38634,225.737624 629.688175,396.995908 L629.6913,396.992783 L629.692862,396.992783 Z" id="Path" fill="#F7931A"></path>
            <path d="M460.586127,274.120128 C466.948587,231.579774 434.561293,208.712732 390.274076,193.458142 L404.641171,135.833509 L369.56327,127.09294 L355.577422,183.200395 C346.355605,180.90041 336.885353,178.733236 327.472913,176.584812 L341.560323,120.107047 L306.504297,111.366478 L292.129388,168.972361 C284.498187,167.234872 277.002922,165.517695 269.731094,163.708332 L269.771718,163.527083 L221.398589,151.447472 L212.067399,188.912859 C212.067399,188.912859 238.092233,194.878446 237.543799,195.245631 C251.748396,198.790921 254.317129,208.193986 253.89057,215.647063 L237.525049,281.295082 C238.503168,281.543518 239.77191,281.902891 241.171901,282.465388 C240.001596,282.174764 238.756291,281.857579 237.464112,281.548206 L214.525195,373.511682 C212.789269,377.82728 208.383047,384.303801 198.45186,381.844442 C198.803421,382.353813 172.95671,375.481982 172.95671,375.481982 L155.541196,415.634851 L201.189343,427.014466 C209.681476,429.14414 218.003298,431.372251 226.198559,433.46755 L211.683026,491.753116 L246.720303,500.493686 L261.095211,442.826866 C270.667025,445.425287 279.956029,447.822146 289.049721,450.081507 L274.723249,507.476454 L309.802713,516.217023 L324.316683,458.040831 C384.131927,469.361072 429.108203,464.797038 448.039332,410.694258 C463.293923,367.13516 447.279962,342.010321 415.811413,325.62605 C438.731579,320.340146 455.995532,305.265242 460.598627,274.124816 L460.58769,274.117003 L460.586127,274.120128 Z M380.441326,386.503787 C369.60077,430.062884 296.260612,406.51616 272.482639,400.61151 L291.745016,323.393252 C315.521427,329.329151 391.770941,341.075952 380.442888,386.503787 L380.441326,386.503787 Z M391.289694,273.488882 C381.400695,313.110505 320.358896,292.980946 300.55746,288.045039 L318.021411,218.012673 C337.822847,222.948579 401.591191,232.161021 391.292819,273.488882 L391.289694,273.488882 Z" id="Shape" fill="#FFFFFF"></path>
        </g>
    </g>
</svg>