<?xml version="1.0" encoding="UTF-8"?>
<svg width="800px" height="800px" viewBox="0 0 800 800" version="1.1" xmlns="http://www.w3.org/2000/svg" xmlns:xlink="http://www.w3.org/1999/xlink">
    <title>token-btcb_bnb</title>
    <defs>
        <path d="M175,232 C271.649831,232 350,200 350,149.5 C350,99 271.649831,0 175,0 C78.3501688,0 0,99 0,149.5 C0,200 78.3501688,232 175,232 Z" id="path-1"></path>
        <filter x="-14.3%" y="-14.3%" width="128.5%" height="128.5%" filterUnits="objectBoundingBox" id="filter-3">
            <feOffset dx="10" dy="-10" in="SourceAlpha" result="shadowOffsetOuter1"></feOffset>
            <feGaussianBlur stdDeviation="15" in="shadowOffsetOuter1" result="shadowBlurOuter1"></feGaussianBlur>
            <feColorMatrix values="0 0 0 0 0   0 0 0 0 0   0 0 0 0 0  0 0 0 0.5 0" type="matrix" in="shadowBlurOuter1" result="shadowMatrixOuter1"></feColorMatrix>
            <feMerge>
                <feMergeNode in="shadowMatrixOuter1"></feMergeNode>
                <feMergeNode in="SourceGraphic"></feMergeNode>
            </feMerge>
        </filter>
    </defs>
    <g id="token-btcb_bnb" stroke="none" stroke-width="1" fill="none" fill-rule="evenodd">
        <g id="Group" transform="translate(120.000000, -130.000000)">
            <g id="bunny" transform="translate(132.000000, 149.000000)">
                <g id="face">
                    <path d="M362,10 C376.911688,10 390.411688,16.0441559 400.183766,25.8162338 C409.955844,35.5883118 416,49.0883118 416,64 C416,65.9841831 415.893389,67.9434367 415.685239,69.8723066 L415.685239,69.8723066 L415.597276,70.6279918 L398.242438,182.943999 C431.846166,196.588641 459.655329,215.373558 478.556375,237.677553 C494.762993,256.802017 504.355967,278.502432 504.968659,301.631809 L504.968659,301.631809 L505,304.064417 L505,348 C505,387.768956 478.640983,423.253092 437.4787,449.13607 C394.233279,476.328931 334.459045,493 268.5,493 C203.247146,493 144.048838,476.682961 100.914821,450.005102 C59.7686617,424.556709 33.0711314,389.629043 32.0313415,350.368205 L32.0313415,350.368205 L32,347.935583 L32,304.064417 L32.0313413,301.631809 C32.6440396,278.502173 42.2372201,256.801534 58.4441664,237.676915 C77.3520591,215.365109 105.174328,196.574883 138.794129,182.929155 L138.794129,182.929155 L121.038,71.4472055 C121.096447,69.8030449 121.06979,68.1517153 121.035184,66.4893508 C121.017985,65.6631364 121,64.8335899 121,64 C121,49.0883118 127.044156,35.5883118 136.816234,25.8162338 C146.588312,16.0441559 160.088312,10 175,10 C189.749853,10 203.118587,15.9135644 212.864318,25.4994166 C222.617349,35.0924486 228.743328,48.3628477 228.992096,63.0649009 L228.992096,63.0649009 L228.999999,64.0404031 L228.997996,161.032143 C241.84972,159.695125 255.045714,159 268.5,159 C281.954578,159 295.150853,159.695156 308.00284,161.03223 L308.00284,161.03223 L308.000001,64.04036 L308.007904,63.0649009 C308.256672,48.3628477 314.382651,35.0924486 324.135682,25.4994166 C333.881413,15.9135644 347.250147,10 362,10 Z" id="Combined-Shape" stroke="#EC6998" stroke-width="20" fill="#FACFD8"></path>
                    <ellipse id="Oval" fill="#EC6998" cx="481" cy="324" rx="55" ry="37"></ellipse>
                    <ellipse id="Oval" fill="#EC6998" cx="55" cy="324" rx="55" ry="37"></ellipse>
                </g>
                <g id="mouth" transform="translate(94.000000, 271.000000)">
                    <mask id="mask-2" fill="white">
                        <use xlink:href="#path-1"></use>
                    </mask>
                    <use id="Oval" fill="#000000" xlink:href="#path-1"></use>
                    <ellipse id="Oval" fill="#FFFFFF" mask="url(#mask-2)" cx="175.5" cy="0.5" rx="11.5" ry="20.5"></ellipse>
                    <path d="M172.819065,242 C249.464049,242 331.422517,214.7 347.369897,188.45 C363.317276,162.2 249.991649,137 173.346664,137 C96.7016798,137 -15.5687488,162.2 0.424844634,188.45 C16.4184381,214.7 96.1740802,242 172.819065,242 Z" id="Oval" fill="#EC6998" mask="url(#mask-2)"></path>
                </g>
                <g id="eyes" transform="translate(143.257942, 228.036736)" fill="#000000">
                    <path d="M32.7300475,31.4550326 C52.0600137,31.4550326 70,33.0751322 70,27 C70,20.9248678 54.3299662,16 35,16 C15.6700338,16 0,20.9248678 0,27 C0,33.0751322 13.4000813,31.4550326 32.7300475,31.4550326 Z" id="Oval" transform="translate(35.000000, 23.825524) rotate(-27.000000) translate(-35.000000, -23.825524) "></path>
                    <path d="M212.210048,31.4550326 C231.540014,31.4550326 249.48,33.0751322 249.48,27 C249.48,20.9248678 233.809966,16 214.48,16 C195.150034,16 179.48,20.9248678 179.48,27 C179.48,33.0751322 192.880081,31.4550326 212.210048,31.4550326 Z" id="Oval" transform="translate(214.480000, 23.825524) scale(-1, 1) rotate(-27.000000) translate(-214.480000, -23.825524) "></path>
                </g>
            </g>
        </g>
        <g id="bitcoin-btc-logo" filter="url(#filter-3)" transform="translate(0.000000, 260.000000)" fill-rule="nonzero">
            <path d="M531.303353,334.96266 C495.280731,479.455245 348.933226,567.390574 204.423502,531.358723 C59.9744225,495.336101 -27.9609058,348.979368 8.07753642,204.498648 C44.0843382,59.9902427 190.431843,-27.9516773 334.896743,8.07094466 C479.39592,44.0935667 567.325975,190.46612 531.299398,334.965297 L531.302034,334.96266 L531.303353,334.96266 Z" id="Path" fill="#F7931A"></path>
            <path d="M388.619545,231.288858 C393.98787,195.395435 366.661091,176.101368 329.293751,163.230307 L341.415988,114.609524 L311.819009,107.234668 L300.018449,154.575333 C292.237542,152.634721 284.247017,150.806168 276.305271,148.993435 L288.191523,101.340321 L258.613,93.9654657 L246.484171,142.570429 C240.045345,141.104423 233.721216,139.655555 227.58561,138.128905 L227.619887,137.975976 L186.80506,127.783805 L178.931868,159.395225 C178.931868,159.395225 200.890321,164.428689 200.42758,164.738501 C212.412709,167.729839 214.580078,175.663676 214.220168,181.95221 L200.41176,237.342726 C201.237048,237.552344 202.307549,237.855564 203.488791,238.330171 C202.501346,238.084957 201.450621,237.817332 200.360344,237.556299 L181.005634,315.150482 C179.540946,318.791767 175.823196,324.256332 167.443757,322.181248 C167.740386,322.61103 145.932224,316.812923 145.932224,316.812923 L131.237884,350.691906 L169.753508,360.293456 C176.918746,362.090368 183.940283,363.970337 190.855034,365.738246 L178.607553,414.916692 L208.170255,422.291547 L220.299084,373.635168 C228.375303,375.827586 236.212899,377.849936 243.885702,379.756271 L231.797742,428.183258 L261.396039,435.558113 L273.642202,386.471951 C324.111314,396.023404 362.060046,392.172501 378.033187,346.52328 C390.904247,309.770292 377.392468,288.571208 350.84088,274.74698 C370.17977,270.286998 384.74623,257.567548 388.630092,231.292813 L388.620863,231.286221 L388.619545,231.288858 Z M320.997369,326.11257 C311.850649,362.865559 249.969891,342.99801 229.907226,338.015961 L246.159857,272.863056 C266.221204,277.871471 330.556731,287.782834 320.998687,326.11257 L320.997369,326.11257 Z M330.150679,230.756244 C321.806836,264.186988 270.302819,247.202673 253.595357,243.038002 L268.330565,183.948193 C285.038027,188.112864 338.842567,195.885861 330.153316,230.756244 L330.150679,230.756244 Z" id="Shape" fill="#FFFFFF"></path>
        </g>
    </g>
</svg>