<?xml version="1.0" encoding="UTF-8"?>
<svg width="800px" height="800px" viewBox="0 0 800 800" version="1.1" xmlns="http://www.w3.org/2000/svg" xmlns:xlink="http://www.w3.org/1999/xlink">
    <title>token-bunny_bnb</title>
    <defs>
        <path d="M175,232 C271.649831,232 350,200 350,149.5 C350,99 271.649831,0 175,0 C78.3501688,0 0,99 0,149.5 C0,200 78.3501688,232 175,232 Z" id="path-1"></path>
        <filter x="-14.3%" y="-14.3%" width="128.5%" height="128.5%" filterUnits="objectBoundingBox" id="filter-3">
            <feOffset dx="10" dy="-10" in="SourceAlpha" result="shadowOffsetOuter1"></feOffset>
            <feGaussianBlur stdDeviation="15" in="shadowOffsetOuter1" result="shadowBlurOuter1"></feGaussianBlur>
            <feColorMatrix values="0 0 0 0 0   0 0 0 0 0   0 0 0 0 0  0 0 0 0.5 0" type="matrix" in="shadowBlurOuter1" result="shadowMatrixOuter1"></feColorMatrix>
            <feMerge>
                <feMergeNode in="shadowMatrixOuter1"></feMergeNode>
                <feMergeNode in="SourceGraphic"></feMergeNode>
            </feMerge>
        </filter>
    </defs>
    <g id="token-bunny_bnb" stroke="none" stroke-width="1" fill="none" fill-rule="evenodd">
        <g id="Group" transform="translate(120.000000, -130.000000)">
            <g id="bunny" transform="translate(132.000000, 149.000000)">
                <g id="face">
                    <path d="M362,10 C376.911688,10 390.411688,16.0441559 400.183766,25.8162338 C409.955844,35.5883118 416,49.0883118 416,64 C416,65.9841831 415.893389,67.9434367 415.685239,69.8723066 L415.685239,69.8723066 L415.597276,70.6279918 L398.242438,182.943999 C431.846166,196.588641 459.655329,215.373558 478.556375,237.677553 C494.762993,256.802017 504.355967,278.502432 504.968659,301.631809 L504.968659,301.631809 L505,304.064417 L505,348 C505,387.768956 478.640983,423.253092 437.4787,449.13607 C394.233279,476.328931 334.459045,493 268.5,493 C203.247146,493 144.048838,476.682961 100.914821,450.005102 C59.7686617,424.556709 33.0711314,389.629043 32.0313415,350.368205 L32.0313415,350.368205 L32,347.935583 L32,304.064417 L32.0313413,301.631809 C32.6440396,278.502173 42.2372201,256.801534 58.4441664,237.676915 C77.3520591,215.365109 105.174328,196.574883 138.794129,182.929155 L138.794129,182.929155 L121.038,71.4472055 C121.096447,69.8030449 121.06979,68.1517153 121.035184,66.4893508 C121.017985,65.6631364 121,64.8335899 121,64 C121,49.0883118 127.044156,35.5883118 136.816234,25.8162338 C146.588312,16.0441559 160.088312,10 175,10 C189.749853,10 203.118587,15.9135644 212.864318,25.4994166 C222.617349,35.0924486 228.743328,48.3628477 228.992096,63.0649009 L228.992096,63.0649009 L228.999999,64.0404031 L228.997996,161.032143 C241.84972,159.695125 255.045714,159 268.5,159 C281.954578,159 295.150853,159.695156 308.00284,161.03223 L308.00284,161.03223 L308.000001,64.04036 L308.007904,63.0649009 C308.256672,48.3628477 314.382651,35.0924486 324.135682,25.4994166 C333.881413,15.9135644 347.250147,10 362,10 Z" id="Combined-Shape" stroke="#EC6998" stroke-width="20" fill="#FACFD8"></path>
                    <ellipse id="Oval" fill="#EC6998" cx="481" cy="324" rx="55" ry="37"></ellipse>
                    <ellipse id="Oval" fill="#EC6998" cx="55" cy="324" rx="55" ry="37"></ellipse>
                </g>
                <g id="mouth" transform="translate(94.000000, 271.000000)">
                    <mask id="mask-2" fill="white">
                        <use xlink:href="#path-1"></use>
                    </mask>
                    <use id="Oval" fill="#000000" xlink:href="#path-1"></use>
                    <ellipse id="Oval" fill="#FFFFFF" mask="url(#mask-2)" cx="175.5" cy="0.5" rx="11.5" ry="20.5"></ellipse>
                    <path d="M172.819065,242 C249.464049,242 331.422517,214.7 347.369897,188.45 C363.317276,162.2 249.991649,137 173.346664,137 C96.7016798,137 -15.5687488,162.2 0.424844634,188.45 C16.4184381,214.7 96.1740802,242 172.819065,242 Z" id="Oval" fill="#EC6998" mask="url(#mask-2)"></path>
                </g>
                <g id="eyes" transform="translate(143.257942, 228.036736)" fill="#000000">
                    <path d="M32.7300475,31.4550326 C52.0600137,31.4550326 70,33.0751322 70,27 C70,20.9248678 54.3299662,16 35,16 C15.6700338,16 0,20.9248678 0,27 C0,33.0751322 13.4000813,31.4550326 32.7300475,31.4550326 Z" id="Oval" transform="translate(35.000000, 23.825524) rotate(-27.000000) translate(-35.000000, -23.825524) "></path>
                    <path d="M212.210048,31.4550326 C231.540014,31.4550326 249.48,33.0751322 249.48,27 C249.48,20.9248678 233.809966,16 214.48,16 C195.150034,16 179.48,20.9248678 179.48,27 C179.48,33.0751322 192.880081,31.4550326 212.210048,31.4550326 Z" id="Oval" transform="translate(214.480000, 23.825524) scale(-1, 1) rotate(-27.000000) translate(-214.480000, -23.825524) "></path>
                </g>
            </g>
        </g>
        <g id="bunny-token" transform="translate(0.000000, 260.000000)" filter="url(#filter-3)">
            <circle id="Oval" fill="#FACFD8" cx="270" cy="270" r="270"></circle>
            <g id="RocketBunnySymbol" transform="translate(86.400000, 124.200000)" fill="#EC6998" fill-rule="nonzero">
                <path d="M120.303542,225.890949 C129.668901,225.890949 137.519275,228.987249 143.854665,235.179848 C150.190055,241.372447 153.35775,249.285212 153.35775,258.918144 C153.35775,268.551076 150.190055,276.395035 143.854665,282.450021 C137.519275,288.505007 129.668901,291.5325 120.303542,291.5325 C111.213635,291.5325 103.432124,288.505007 96.9590083,282.450021 C90.4858927,276.395035 87.2493349,268.551076 87.2493349,258.918144 C87.2493349,249.285212 90.4858927,241.372447 96.9590083,235.179848 C103.432124,228.987249 111.213635,225.890949 120.303542,225.890949 Z M246.735885,225.890949 C256.101244,225.890949 263.951618,228.987249 270.287008,235.179848 C276.622398,241.372447 279.790093,249.285212 279.790093,258.918144 C279.790093,268.551076 276.622398,276.395035 270.287008,282.450021 C263.951618,288.505007 256.101244,291.5325 246.735885,291.5325 C237.645978,291.5325 229.864467,288.505007 223.391351,282.450021 C216.918236,276.395035 213.681678,268.551076 213.681678,258.918144 C213.681678,249.285212 216.918236,241.372447 223.391351,235.179848 C229.864467,228.987249 237.645978,225.890949 246.735885,225.890949 Z M147.160086,0.0675 L147.160086,76.8557295 L147.158062,78.8090522 C147.143663,85.7411689 147.05243,92.4941511 146.884362,99.0679989 C158.770511,97.6079328 170.913669,96.8784667 183.313125,96.8784667 C196.002855,96.8784667 208.424146,97.6424864 220.576997,99.1705258 C220.387115,91.9305089 220.292519,84.4915761 220.292519,76.8557295 L220.292519,76.8557295 L220.292519,0.0675 L273.592429,0.0675 L273.592429,76.8557295 L273.590405,78.8090522 C273.567127,90.0161694 273.343025,100.755082 272.918101,111.025791 C276.340525,112.168495 279.73882,113.382039 283.112729,114.664988 C314.29616,126.522668 342.134001,142.669297 366.62625,163.104874 L366.62625,163.104874 L345.416467,195.271987 L344.231501,194.398985 C322.070792,178.166007 297.594785,165.464017 270.80348,156.293015 C270.402269,156.155676 270.000647,156.019346 269.598616,155.884027 C268.24909,169.516234 266.687978,183.219028 264.915699,196.992153 L264.915699,196.992153 L229.382427,196.992153 L228.87241,193.38061 C226.617076,177.208922 224.750247,161.085758 223.271924,145.011117 C210.321498,143.197505 197.001241,142.29086 183.313125,142.29086 C169.913982,142.29086 156.87908,143.159628 144.208418,144.897163 C142.641436,162.148394 140.732431,179.513641 138.483356,196.992153 L138.483356,196.992153 L102.950083,196.992153 L102.440067,193.38061 C100.682464,180.777859 99.1608087,168.204578 97.8751021,155.660766 L97.327064,155.844975 L97.327064,155.844975 L96.0121429,156.293015 C68.8686706,165.627785 43.9345506,178.620775 21.2097831,195.271987 L21.2097831,195.271987 L-2.21492367e-12,163.104874 L1.13278708,162.164739 C25.3495903,142.173493 52.8098348,126.340242 83.5135208,114.664988 C87.1586782,113.278895 90.8322996,111.973816 94.5343849,110.74975 C94.0847875,99.9205926 93.8601763,88.6219398 93.8601763,76.8557295 L93.8601763,76.8557295 L93.8601763,0.0675 L147.160086,0.0675 Z" id="Combined-Shape"></path>
            </g>
        </g>
    </g>
</svg>