<?xml version="1.0" encoding="UTF-8"?>
<svg width="800px" height="800px" viewBox="0 0 800 800" version="1.1" xmlns="http://www.w3.org/2000/svg" xmlns:xlink="http://www.w3.org/1999/xlink">
    <title>token-usdt_busd</title>
    <defs>
        <path d="M134.75,178.64 C209.17037,178.64 269.5,154 269.5,115.115 C269.5,76.23 209.17037,0 134.75,0 C60.32963,0 0,76.23 0,115.115 C0,154 60.32963,178.64 134.75,178.64 Z" id="path-1"></path>
        <filter x="-14.3%" y="-14.3%" width="128.5%" height="128.5%" filterUnits="objectBoundingBox" id="filter-3">
            <feOffset dx="10" dy="-10" in="SourceAlpha" result="shadowOffsetOuter1"></feOffset>
            <feGaussianBlur stdDeviation="15" in="shadowOffsetOuter1" result="shadowBlurOuter1"></feGaussianBlur>
            <feColorMatrix values="0 0 0 0 0   0 0 0 0 0   0 0 0 0 0  0 0 0 0.5 0" type="matrix" in="shadowBlurOuter1" result="shadowMatrixOuter1"></feColorMatrix>
            <feMerge>
                <feMergeNode in="shadowMatrixOuter1"></feMergeNode>
                <feMergeNode in="SourceGraphic"></feMergeNode>
            </feMerge>
        </filter>
        <filter id="filter-4">
            <feColorMatrix in="SourceGraphic" type="matrix" values="0 0 0 0 1.000000 0 0 0 0 1.000000 0 0 0 0 1.000000 0 0 0 1.000000 0"></feColorMatrix>
        </filter>
        <filter x="-14.3%" y="-14.3%" width="128.5%" height="128.5%" filterUnits="objectBoundingBox" id="filter-5">
            <feOffset dx="10" dy="-10" in="SourceAlpha" result="shadowOffsetOuter1"></feOffset>
            <feGaussianBlur stdDeviation="15" in="shadowOffsetOuter1" result="shadowBlurOuter1"></feGaussianBlur>
            <feColorMatrix values="0 0 0 0 0   0 0 0 0 0   0 0 0 0 0  0 0 0 0.5 0" type="matrix" in="shadowBlurOuter1" result="shadowMatrixOuter1"></feColorMatrix>
            <feMerge>
                <feMergeNode in="shadowMatrixOuter1"></feMergeNode>
                <feMergeNode in="SourceGraphic"></feMergeNode>
            </feMerge>
        </filter>
    </defs>
    <g id="token-usdt_busd" stroke="none" stroke-width="1" fill="none" fill-rule="evenodd">
        <g id="Group" transform="translate(92.000000, -105.000000)">
            <g id="bunny" transform="translate(101.640000, 114.730000)">
                <g id="face">
                    <path d="M278.74,7.7 C290.222,7.7 300.617,12.354 308.1415,19.8785 C315.666,27.4030001 320.32,37.7980001 320.32,49.28 C320.32,50.7748791 320.241412,52.2513815 320.087892,53.7055739 L320.087892,53.7055739 L320.009358,54.3869013 L306.647242,140.867109 C332.521942,151.373497 353.934846,165.837857 368.488547,183.01188 C380.96756,197.737677 388.354097,214.446939 388.825867,232.256493 L388.825867,232.256493 L388.85,234.129601 L388.85,267.96 C388.85,298.582096 368.553557,325.904881 336.858599,345.834774 C303.559625,366.773277 257.533464,379.61 206.745,379.61 C156.500302,379.61 110.917605,367.04588 77.7044118,346.503929 C46.0218695,326.908666 25.4647712,300.014363 24.664133,269.783518 L24.664133,269.783518 L24.64,267.910399 L24.64,234.129601 L24.6641328,232.256493 C25.1359127,214.446591 32.5227279,197.737026 45.0021815,183.01102 C59.561388,165.830863 80.9847224,151.362356 106.872182,140.855164 L106.872182,140.855164 L93.1992486,55.0142317 C93.2442489,53.7479257 93.2237206,52.4763767 93.1970814,51.1964386 C93.1838425,50.560351 93.17,49.9217315 93.17,49.28 C93.17,37.7980001 97.824,27.4030001 105.3485,19.8785 C112.873,12.354 123.268,7.7 134.75,7.7 C146.107387,7.7 156.401312,12.2534446 163.905525,19.6345508 C171.415359,27.0211854 176.132363,37.2393927 176.323914,48.5599737 L176.323914,48.5599737 L176.329999,49.3110981 L176.32822,123.994775 C186.224122,122.965255 196.385117,122.43 206.745,122.43 C217.105145,122.43 227.266393,122.965282 237.162532,123.994853 L237.162532,123.994853 L237.160001,49.3110594 L237.166086,48.5599737 C237.357637,37.2393927 242.074641,27.0211854 249.584475,19.6345508 C257.088688,12.2534446 267.382613,7.7 278.74,7.7 Z" id="Combined-Shape" stroke="#EC6998" stroke-width="15.4" fill="#FACFD8"></path>
                    <ellipse id="Oval" fill="#EC6998" cx="370.37" cy="249.48" rx="42.35" ry="28.49"></ellipse>
                    <ellipse id="Oval" fill="#EC6998" cx="42.35" cy="249.48" rx="42.35" ry="28.49"></ellipse>
                </g>
                <g id="mouth" transform="translate(72.380000, 208.670000)">
                    <mask id="mask-2" fill="white">
                        <use xlink:href="#path-1"></use>
                    </mask>
                    <use id="Oval" fill="#000000" xlink:href="#path-1"></use>
                    <ellipse id="Oval" fill="#FFFFFF" mask="url(#mask-2)" cx="135.135" cy="0.385" rx="8.855" ry="15.785"></ellipse>
                    <path d="M133.07068,186.34 C192.087318,186.34 255.195338,165.319 267.474821,145.1065 C279.754303,124.894 192.49357,105.49 133.476932,105.49 C74.4602934,105.49 -11.9879366,124.894 0.327130368,145.1065 C12.6421973,165.319 74.0540418,186.34 133.07068,186.34 Z" id="Oval" fill="#EC6998" mask="url(#mask-2)"></path>
                </g>
                <g id="eyes" transform="translate(110.308615, 175.588287)" fill="#000000">
                    <path d="M25.2021366,24.2203751 C40.0862106,24.2203751 53.9,25.4678518 53.9,20.79 C53.9,16.1121482 41.834074,12.32 26.95,12.32 C12.065926,12.32 0,16.1121482 0,20.79 C0,25.4678518 10.3180626,24.2203751 25.2021366,24.2203751 Z" id="Oval" transform="translate(26.950000, 18.345653) rotate(-27.000000) translate(-26.950000, -18.345653) "></path>
                    <path d="M163.401737,24.2203751 C178.285811,24.2203751 192.0996,25.4678518 192.0996,20.79 C192.0996,16.1121482 180.033674,12.32 165.1496,12.32 C150.265526,12.32 138.1996,16.1121482 138.1996,20.79 C138.1996,25.4678518 148.517663,24.2203751 163.401737,24.2203751 Z" id="Oval" transform="translate(165.149600, 18.345653) scale(-1, 1) rotate(-27.000000) translate(-165.149600, -18.345653) "></path>
                </g>
            </g>
        </g>
        <g id="Group" filter="url(#filter-3)" transform="translate(260.000000, 260.000000)">
            <circle id="Oval" fill="#F0B90B" cx="270" cy="270" r="270"></circle>
            <g filter="url(#filter-4)" id="binance-usd-busd-logo">
                <g transform="translate(78.000000, 78.000000)">
                    <polygon id="Path" stroke="#F0B90B" stroke-width="1.14" fill="#F0B90B" fill-rule="nonzero" points="191.748 0.8094 239.058 49.2594 119.928 168.3894 72.618 121.0794"></polygon>
                    <polygon id="Path" stroke="#F0B90B" stroke-width="1.14" fill="#F0B90B" fill-rule="nonzero" points="263.568 72.6294 310.878 121.0794 119.928 312.0294 72.618 264.7194"></polygon>
                    <polygon id="Path" stroke="#F0B90B" stroke-width="1.14" fill="#F0B90B" fill-rule="nonzero" points="48.108 144.4494 95.418 192.8994 48.108 240.2094 0.798 192.8994"></polygon>
                    <polygon id="Path" stroke="#F0B90B" stroke-width="1.14" fill="#F0B90B" fill-rule="nonzero" points="335.388 144.4494 382.698 192.8994 191.748 383.8494 144.438 336.5394"></polygon>
                </g>
            </g>
        </g>
        <g id="tether-seeklogo.com" filter="url(#filter-5)" transform="translate(0.000000, 260.000000)" fill-rule="nonzero">
            <path d="M270,0 C419.1102,0 540,120.8898 540,270 C540,419.1102 419.1048,540 270,540 C120.8952,540 0,419.1426 0,270 C0,120.8574 120.8736,0 270,0" id="Path" fill="#23A881"></path>
            <path d="M303.3234,234.0252 L303.3234,193.86 L395.172,193.86 L395.172,132.6618 L145.0656,132.6618 L145.0656,193.86 L236.925,193.86 L236.925,233.9928 C162.27,237.4218 106.137,252.207 106.137,269.919 C106.137,287.631 162.297,302.4162 236.925,305.8668 L236.925,434.5218 L303.345,434.5218 L303.345,305.856 C377.865,302.4162 433.8846,287.6418 433.8846,269.946 C433.8846,252.2502 377.865,237.4758 303.345,234.036 M303.345,294.9588 L303.345,294.9264 C301.4712,295.0452 291.843,295.623 270.405,295.623 C253.2654,295.623 241.2072,295.137 236.9574,294.9156 L236.9574,294.9696 C171.0018,292.0482 121.77,280.5624 121.77,266.8194 C121.77,253.0764 171.0072,241.6068 236.9574,238.68 L236.9574,283.527 C241.2774,283.824 253.6326,284.553 270.6858,284.553 C291.168,284.553 301.4658,283.6998 303.3558,283.527 L303.3558,238.68 C369.1818,241.6122 418.3002,253.1088 418.3002,266.8032 C418.3002,280.4976 369.1602,291.9996 303.3558,294.9318" id="Shape" fill="#FFFFFF"></path>
        </g>
    </g>
</svg>