<svg width="32" height="32" viewBox="0 0 32 32" fill="none" xmlns="http://www.w3.org/2000/svg">
<rect width="32" height="32" fill="white"/>
<path d="M13.9436 16.9336C14.373 17.5077 14.9209 17.9827 15.5501 18.3265C16.1793 18.6703 16.8751 18.8747 17.5902 18.9259C18.3054 18.9771 19.0232 18.8739 19.6949 18.6233C20.3667 18.3728 20.9767 17.9806 21.4836 17.4736L24.4836 14.4736C25.3944 13.5305 25.8983 12.2675 25.8869 10.9566C25.8756 9.64557 25.3497 8.39151 24.4227 7.46447C23.4956 6.53743 22.2416 6.01158 20.9306 6.00019C19.6196 5.9888 18.3566 6.49277 17.4136 7.40356L15.6936 9.11356" stroke="black" stroke-width="2" stroke-linecap="round" stroke-linejoin="round"/>
<path d="M17.9436 14.9336C17.5141 14.3594 16.9662 13.8844 16.337 13.5406C15.7078 13.1969 15.0121 12.9924 14.2969 12.9412C13.5818 12.89 12.864 12.9932 12.1922 13.2438C11.5205 13.4944 10.9104 13.8865 10.4036 14.3936L7.40356 17.3936C6.49277 18.3366 5.9888 19.5996 6.00019 20.9106C6.01158 22.2216 6.53743 23.4756 7.46447 24.4027C8.39151 25.3297 9.64557 25.8555 10.9566 25.8669C12.2675 25.8783 13.5305 25.3744 14.4736 24.4636L16.1836 22.7536" stroke="black" stroke-width="2" stroke-linecap="round" stroke-linejoin="round"/>
</svg>
