<svg width="348" height="191" viewBox="0 0 348 191" fill="none" xmlns="http://www.w3.org/2000/svg">
<rect width="347.122" height="190.673" rx="24" fill="#355DFF"/>
<path d="M150.851 29.758H121.511L89.2312 49.829V77.187L118.507 59.2893H119.274V160.667H150.851V29.758Z" fill="#242731" fill-opacity="0.25"/>
<path d="M30.7402 51.1217H27.665V65.6671H30.7402V51.1217ZM36.2392 59.3603C36.2463 57.954 37.0844 57.1302 38.3059 57.1302C39.5204 57.1302 40.252 57.9256 40.2449 59.2609V65.6671H43.2704V58.7211C43.2704 56.1785 41.779 54.616 39.5062 54.616C37.8869 54.616 36.715 55.4114 36.225 56.6827H36.0971V54.758H33.2136V65.6671H36.2392V59.3603ZM54.7317 57.8688C54.4618 55.8589 52.8425 54.616 50.0868 54.616C47.2956 54.616 45.4562 55.9086 45.4633 58.0109C45.4562 59.6444 46.486 60.7026 48.6167 61.1288L50.5059 61.5052C51.4576 61.6969 51.8908 62.045 51.905 62.5918C51.8908 63.2381 51.1877 63.6998 50.1294 63.6998C49.0499 63.6998 48.3326 63.2381 48.1479 62.3504L45.1721 62.5066C45.4562 64.5947 47.2317 65.8802 50.1223 65.8802C52.9491 65.8802 54.9732 64.4384 54.9803 62.2864C54.9732 60.7097 53.9434 59.7651 51.8269 59.3319L49.8525 58.9342C48.8368 58.714 48.4604 58.366 48.4675 57.8404C48.4604 57.187 49.1991 56.7609 50.1366 56.7609C51.1877 56.7609 51.8127 57.3361 51.9618 58.0393L54.7317 57.8688ZM62.688 54.758H60.6355V52.1444H57.6099V54.758H56.1184V57.0308H57.6099V62.7126C57.5957 64.8504 59.0517 65.9086 61.2463 65.8163C62.0275 65.7879 62.5815 65.6316 62.8869 65.5322L62.4111 63.2808C62.2619 63.3092 61.9423 63.3802 61.6582 63.3802C61.0545 63.3802 60.6355 63.1529 60.6355 62.3148V57.0308H62.688V54.758ZM67.7697 65.8731C69.3819 65.8731 70.426 65.17 70.9586 64.1543H71.0439V65.6671H73.9132V58.3092C73.9132 55.7097 71.7115 54.616 69.2825 54.616C66.6689 54.616 64.9501 55.866 64.5311 57.8546L67.3294 58.0819C67.5353 57.3575 68.1817 56.8248 69.2683 56.8248C70.2981 56.8248 70.8876 57.3433 70.8876 58.2381V58.2808C70.8876 58.9839 70.1419 59.0762 68.2456 59.2609C66.0865 59.4597 64.1476 60.1842 64.1476 62.6202C64.1476 64.7793 65.6888 65.8731 67.7697 65.8731ZM68.6362 63.785C67.7058 63.785 67.0382 63.3518 67.0382 62.5208C67.0382 61.6685 67.7413 61.2495 68.8067 61.1004C69.4672 61.008 70.5467 60.8518 70.9089 60.6103V61.768C70.9089 62.9114 69.9643 63.785 68.6362 63.785ZM79.2861 51.1217H76.2605V65.6671H79.2861V51.1217ZM84.7353 51.1217H81.7097V65.6671H84.7353V51.1217ZM27.665 75.1217V89.6671H30.6479V80.1643H30.7687L34.5329 89.5961H36.5641L40.3283 80.1998H40.4491V89.6671H43.432V75.1217H39.6394L35.6337 84.8944H35.4633L31.4576 75.1217H27.665ZM50.8805 89.8802C53.5794 89.8802 55.3976 88.5663 55.8237 86.5421L53.0254 86.3575C52.72 87.1884 51.9388 87.6217 50.9302 87.6217C49.4174 87.6217 48.4586 86.6202 48.4586 84.9938V84.9867H55.8876V84.1558C55.8876 80.4484 53.6433 78.616 50.7598 78.616C47.5495 78.616 45.4686 80.8958 45.4686 84.2623C45.4686 87.7211 47.5211 89.8802 50.8805 89.8802ZM48.4586 83.1117C48.5226 81.8688 49.4672 80.8745 50.8095 80.8745C52.1234 80.8745 53.0325 81.812 53.0396 83.1117H48.4586ZM63.6646 78.758H61.612V76.1444H58.5865V78.758H57.095V81.0308H58.5865V86.7126C58.5723 88.8504 60.0282 89.9086 62.2228 89.8163C63.0041 89.7879 63.5581 89.6316 63.8635 89.5322L63.3876 87.2808C63.2385 87.3092 62.9189 87.3802 62.6348 87.3802C62.0311 87.3802 61.612 87.1529 61.612 86.3148V81.0308H63.6646V78.758ZM68.7463 89.8731C70.3585 89.8731 71.4025 89.17 71.9352 88.1543H72.0204V89.6671H74.8897V82.3092C74.8897 79.7097 72.688 78.616 70.2591 78.616C67.6454 78.616 65.9267 79.866 65.5076 81.8546L68.3059 82.0819C68.5119 81.3575 69.1582 80.8248 70.2449 80.8248C71.2747 80.8248 71.8642 81.3433 71.8642 82.2381V82.2808C71.8642 82.9839 71.1184 83.0762 69.2221 83.2609C67.063 83.4597 65.1241 84.1842 65.1241 86.6202C65.1241 88.7793 66.6653 89.8731 68.7463 89.8731ZM69.6128 87.785C68.6824 87.785 68.0147 87.3518 68.0147 86.5208C68.0147 85.6685 68.7179 85.2495 69.7832 85.1004C70.4437 85.008 71.5233 84.8518 71.8855 84.6103V85.768C71.8855 86.9114 70.9409 87.785 69.6128 87.785ZM77.2939 75.1217V89.6671H80.2768V80.1643H80.3976L84.1618 89.5961H86.193L89.9572 80.1998H90.078V89.6671H93.0609V75.1217H89.2683L85.2626 84.8944H85.0922L81.0865 75.1217H77.2939ZM98.6486 89.8731C100.261 89.8731 101.305 89.17 101.838 88.1543H101.923V89.6671H104.792V82.3092C104.792 79.7097 102.59 78.616 100.161 78.616C97.5478 78.616 95.829 79.866 95.41 81.8546L98.2083 82.0819C98.4143 81.3575 99.0606 80.8248 100.147 80.8248C101.177 80.8248 101.767 81.3433 101.767 82.2381V82.2808C101.767 82.9839 101.021 83.0762 99.1245 83.2609C96.9654 83.4597 95.0265 84.1842 95.0265 86.6202C95.0265 88.7793 96.5677 89.8731 98.6486 89.8731ZM99.5151 87.785C98.5847 87.785 97.9171 87.3518 97.9171 86.5208C97.9171 85.6685 98.6202 85.2495 99.6856 85.1004C100.346 85.008 101.426 84.8518 101.788 84.6103V85.768C101.788 86.9114 100.843 87.785 99.5151 87.785ZM116.216 81.8688C115.946 79.8589 114.327 78.616 111.571 78.616C108.78 78.616 106.941 79.9086 106.948 82.0109C106.941 83.6444 107.97 84.7026 110.101 85.1288L111.99 85.5052C112.942 85.6969 113.375 86.045 113.389 86.5918C113.375 87.2381 112.672 87.6998 111.614 87.6998C110.534 87.6998 109.817 87.2381 109.632 86.3504L106.656 86.5066C106.941 88.5947 108.716 89.8802 111.607 89.8802C114.433 89.8802 116.458 88.4384 116.465 86.2864C116.458 84.7097 115.428 83.7651 113.311 83.3319L111.337 82.9342C110.321 82.714 109.945 82.366 109.952 81.8404C109.945 81.187 110.683 80.7609 111.621 80.7609C112.672 80.7609 113.297 81.3361 113.446 82.0393L116.216 81.8688ZM118.37 89.6671H121.395V86.2012L122.212 85.2708L125.188 89.6671H128.732L124.478 83.481L128.526 78.758H125.053L121.559 82.8986H121.395V75.1217H118.37V89.6671ZM30.7189 113.873C32.3312 113.873 33.3752 113.17 33.9079 112.154H33.9931V113.667H36.8624V106.309C36.8624 103.71 34.6607 102.616 32.2317 102.616C29.6181 102.616 27.8993 103.866 27.4803 105.855L30.2786 106.082C30.4846 105.357 31.1309 104.825 32.2175 104.825C33.2473 104.825 33.8368 105.343 33.8368 106.238V106.281C33.8368 106.984 33.0911 107.076 31.1948 107.261C29.0357 107.46 27.0968 108.184 27.0968 110.62C27.0968 112.779 28.638 113.873 30.7189 113.873ZM31.5854 111.785C30.655 111.785 29.9874 111.352 29.9874 110.521C29.9874 109.669 30.6905 109.25 31.7559 109.1C32.4164 109.008 33.4959 108.852 33.8581 108.61V109.768C33.8581 110.911 32.9135 111.785 31.5854 111.785ZM42.2353 107.36C42.2424 105.954 43.0804 105.13 44.302 105.13C45.5165 105.13 46.2481 105.926 46.241 107.261V113.667H49.2665V106.721C49.2665 104.178 47.775 102.616 45.5023 102.616C43.883 102.616 42.7111 103.411 42.2211 104.683H42.0932V102.758H39.2097V113.667H42.2353V107.36ZM55.671 113.845C57.4324 113.845 58.3486 112.829 58.7676 111.92H58.8954V113.667H61.8784V99.1217H58.8599V104.59H58.7676C58.3628 103.703 57.4892 102.616 55.6639 102.616C53.2704 102.616 51.2463 104.477 51.2463 108.227C51.2463 111.877 53.1852 113.845 55.671 113.845ZM56.6298 111.437C55.1454 111.437 54.3358 110.116 54.3358 108.213C54.3358 106.323 55.1312 105.024 56.6298 105.024C58.1 105.024 58.9238 106.267 58.9238 108.213C58.9238 110.159 58.0858 111.437 56.6298 111.437ZM73.9238 113.88C76.8287 113.88 78.654 112.176 78.796 109.669H75.9409C75.7633 110.833 74.9963 111.487 73.9594 111.487C72.546 111.487 71.6298 110.301 71.6298 108.213C71.6298 106.153 72.5531 104.974 73.9594 104.974C75.0673 104.974 75.7775 105.705 75.9409 106.792H78.796C78.6682 104.271 76.7576 102.616 73.9096 102.616C70.6 102.616 68.5545 104.91 68.5545 108.255C68.5545 111.572 70.5645 113.88 73.9238 113.88ZM80.7331 113.667H83.7587V107.495C83.7587 106.153 84.7388 105.23 86.0741 105.23C86.4931 105.23 87.0684 105.301 87.3525 105.393V102.708C87.0826 102.644 86.7062 102.602 86.4008 102.602C85.1792 102.602 84.1777 103.312 83.78 104.661H83.6664V102.758H80.7331V113.667ZM93.3805 113.88C96.0794 113.88 97.8976 112.566 98.3237 110.542L95.5254 110.357C95.22 111.188 94.4388 111.622 93.4302 111.622C91.9174 111.622 90.9586 110.62 90.9586 108.994V108.987H98.3876V108.156C98.3876 104.448 96.1433 102.616 93.2598 102.616C90.0495 102.616 87.9686 104.896 87.9686 108.262C87.9686 111.721 90.0211 113.88 93.3805 113.88ZM90.9586 107.112C91.0226 105.869 91.9672 104.875 93.3095 104.875C94.6234 104.875 95.5325 105.812 95.5396 107.112H90.9586ZM103.473 113.873C105.085 113.873 106.129 113.17 106.662 112.154H106.747V113.667H109.616V106.309C109.616 103.71 107.415 102.616 104.986 102.616C102.372 102.616 100.653 103.866 100.234 105.855L103.033 106.082C103.238 105.357 103.885 104.825 104.971 104.825C106.001 104.825 106.591 105.343 106.591 106.238V106.281C106.591 106.984 105.845 107.076 103.949 107.261C101.79 107.46 99.8507 108.184 99.8507 110.62C99.8507 112.779 101.392 113.873 103.473 113.873ZM104.339 111.785C103.409 111.785 102.741 111.352 102.741 110.521C102.741 109.669 103.444 109.25 104.51 109.1C105.17 109.008 106.25 108.852 106.612 108.61V109.768C106.612 110.911 105.667 111.785 104.339 111.785ZM117.766 102.758H115.714V100.144H112.688V102.758H111.197V105.031H112.688V110.713C112.674 112.85 114.13 113.909 116.324 113.816C117.106 113.788 117.66 113.632 117.965 113.532L117.489 111.281C117.34 111.309 117.02 111.38 116.736 111.38C116.133 111.38 115.714 111.153 115.714 110.315V105.031H117.766V102.758ZM124.591 113.88C127.29 113.88 129.108 112.566 129.535 110.542L126.736 110.357C126.431 111.188 125.65 111.622 124.641 111.622C123.128 111.622 122.17 110.62 122.17 108.994V108.987H129.599V108.156C129.599 104.448 127.354 102.616 124.471 102.616C121.26 102.616 119.18 104.896 119.18 108.262C119.18 111.721 121.232 113.88 124.591 113.88ZM122.17 107.112C122.233 105.869 123.178 104.875 124.52 104.875C125.834 104.875 126.743 105.812 126.751 107.112H122.17ZM30.7189 137.873C32.3312 137.873 33.3752 137.17 33.9079 136.154H33.9931V137.667H36.8624V130.309C36.8624 127.71 34.6607 126.616 32.2317 126.616C29.6181 126.616 27.8993 127.866 27.4803 129.855L30.2786 130.082C30.4846 129.357 31.1309 128.825 32.2175 128.825C33.2473 128.825 33.8368 129.343 33.8368 130.238V130.281C33.8368 130.984 33.0911 131.076 31.1948 131.261C29.0357 131.46 27.0968 132.184 27.0968 134.62C27.0968 136.779 28.638 137.873 30.7189 137.873ZM31.5854 135.785C30.655 135.785 29.9874 135.352 29.9874 134.521C29.9874 133.669 30.6905 133.25 31.7559 133.1C32.4164 133.008 33.4959 132.852 33.8581 132.61V133.768C33.8581 134.911 32.9135 135.785 31.5854 135.785ZM45.9906 137.667H49.1866L51.0616 130.806H51.1966L53.0716 137.667H56.2747L59.2363 126.758H56.1824L54.5204 134.045H54.4281L52.6383 126.758H49.6341L47.8727 134.088H47.7733L46.0829 126.758H43.0219L45.9906 137.667ZM63.9611 137.873C65.5733 137.873 66.6174 137.17 67.15 136.154H67.2353V137.667H70.1046V130.309C70.1046 127.71 67.9029 126.616 65.4739 126.616C62.8603 126.616 61.1415 127.866 60.7225 129.855L63.5208 130.082C63.7268 129.357 64.3731 128.825 65.4597 128.825C66.4895 128.825 67.079 129.343 67.079 130.238V130.281C67.079 130.984 66.3333 131.076 64.437 131.261C62.2779 131.46 60.339 132.184 60.339 134.62C60.339 136.779 61.8802 137.873 63.9611 137.873ZM64.8276 135.785C63.8972 135.785 63.2296 135.352 63.2296 134.521C63.2296 133.669 63.9327 133.25 64.9981 133.1C65.6586 133.008 66.7381 132.852 67.1003 132.61V133.768C67.1003 134.911 66.1557 135.785 64.8276 135.785ZM75.4775 123.122H72.4519V137.667H75.4775V123.122ZM80.9267 123.122H77.9011V137.667H80.9267V123.122ZM88.3219 137.88C91.0208 137.88 92.839 136.566 93.2651 134.542L90.4668 134.357C90.1614 135.188 89.3802 135.622 88.3716 135.622C86.8589 135.622 85.9 134.62 85.9 132.994V132.987H93.329V132.156C93.329 128.448 91.0847 126.616 88.2012 126.616C84.991 126.616 82.91 128.896 82.91 132.262C82.91 135.721 84.9625 137.88 88.3219 137.88ZM85.9 131.112C85.964 129.869 86.9086 128.875 88.2509 128.875C89.5648 128.875 90.4739 129.812 90.481 131.112H85.9ZM101.106 126.758H99.0535V124.144H96.0279V126.758H94.5364V129.031H96.0279V134.713C96.0137 136.85 97.4696 137.909 99.6643 137.816C100.446 137.788 100.999 137.632 101.305 137.532L100.829 135.281C100.68 135.309 100.36 135.38 100.076 135.38C99.4725 135.38 99.0535 135.153 99.0535 134.315V129.031H101.106V126.758Z" fill="white"/>
<g filter="url(#filter0_d)">
<path d="M319.641 60.2424L263.255 76.9722L278.558 60.5367L319.641 60.2424Z" fill="#E2761B" stroke="#E2761B" stroke-linecap="round" stroke-linejoin="round"/>
<path d="M217.263 22.8264L249.102 72.1532L248.518 49.558L217.263 22.8264Z" fill="#E4761B" stroke="#E4761B" stroke-linecap="round" stroke-linejoin="round"/>
<path d="M275.781 130.76L257.357 144.539L280.087 160.728L296.36 138.735L275.781 130.76Z" fill="#E4761B" stroke="#E4761B" stroke-linecap="round" stroke-linejoin="round"/>
<path d="M184.533 97.8661L182.745 125.152L210.558 127.435L205.36 105.023L184.533 97.8661Z" fill="#E4761B" stroke="#E4761B" stroke-linecap="round" stroke-linejoin="round"/>
<path d="M226.919 78.2432L215.984 86.3218L240.67 96.6068L249.633 69.316L226.919 78.2432Z" fill="#E4761B" stroke="#E4761B" stroke-linecap="round" stroke-linejoin="round"/>
<path d="M276.526 96.3729L264.812 74.5097L254.264 101.575L279.719 109.615L276.526 96.3729Z" fill="#E4761B" stroke="#E4761B" stroke-linecap="round" stroke-linejoin="round"/>
<path d="M210.558 127.435L228.31 125.587L219.01 110.668L210.558 127.435Z" fill="#E4761B" stroke="#E4761B" stroke-linecap="round" stroke-linejoin="round"/>
<path d="M244.935 131.663L257.357 144.539L261.663 126.257L244.935 131.663Z" fill="#E4761B" stroke="#E4761B" stroke-linecap="round" stroke-linejoin="round"/>
<path d="M257.357 144.539L244.935 131.663L242.539 141.952L240.89 146.049L257.357 144.539Z" fill="#D7C1B3" stroke="#D7C1B3" stroke-linecap="round" stroke-linejoin="round"/>
<path d="M210.558 127.435L222.171 139.207L223.596 135.03L228.31 125.587L210.558 127.435Z" fill="#D7C1B3" stroke="#D7C1B3" stroke-linecap="round" stroke-linejoin="round"/>
<path d="M233.6 108.624L222.383 100.331L232.735 99.5171L233.6 108.624Z" fill="#233447" stroke="#233447" stroke-linecap="round" stroke-linejoin="round"/>
<path d="M251.83 115.287L258.363 108.883L265.795 116.197L251.83 115.287Z" fill="#233447" stroke="#233447" stroke-linecap="round" stroke-linejoin="round"/>
<path d="M210.558 127.435L219.311 110.122L205.214 105.424L210.558 127.435Z" fill="#CD6116" stroke="#CD6116" stroke-linecap="round" stroke-linejoin="round"/>
<path d="M261.831 125.661L257.357 144.539L275.635 131.161L261.831 125.661Z" fill="#CD6116" stroke="#CD6116" stroke-linecap="round" stroke-linejoin="round"/>
<path d="M279.72 109.615L254.264 101.575L251.874 115.303L258.408 108.9L265.84 116.213L279.72 109.615Z" fill="#CD6116" stroke="#CD6116" stroke-linecap="round" stroke-linejoin="round"/>
<path d="M222.383 100.331L232.78 99.5334L233.6 108.624L240.67 96.6069L215.984 86.3219L222.383 100.331Z" fill="#CD6116" stroke="#CD6116" stroke-linecap="round" stroke-linejoin="round"/>
<path d="M215.984 86.3218L219.01 110.668L222.383 100.331L215.984 86.3218Z" fill="#E4751F" stroke="#E4751F" stroke-linecap="round" stroke-linejoin="round"/>
<path d="M265.84 116.213L261.664 126.257L279.72 109.615L265.84 116.213Z" fill="#E4751F" stroke="#E4751F" stroke-linecap="round" stroke-linejoin="round"/>
<path d="M240.67 96.6069L233.6 108.624L230.987 124.898L238.97 105.13L240.67 96.6069Z" fill="#E4751F" stroke="#E4751F" stroke-linecap="round" stroke-linejoin="round"/>
<path d="M254.264 101.575L250.129 109.158L243.333 129.41L251.874 115.303L254.264 101.575Z" fill="#E4751F" stroke="#E4751F" stroke-linecap="round" stroke-linejoin="round"/>
<path d="M251.874 115.303L243.333 129.41L244.935 131.663L261.664 126.257L265.839 116.213L251.874 115.303Z" fill="#F6851B" stroke="#F6851B" stroke-linecap="round" stroke-linejoin="round"/>
<path d="M222.383 100.331L219.01 110.668L228.31 125.587L230.987 124.898L233.6 108.624L222.383 100.331Z" fill="#F6851B" stroke="#F6851B" stroke-linecap="round" stroke-linejoin="round"/>
<path d="M240.89 146.049L242.539 141.952L241.783 140.565L224.98 134.424L223.596 135.03L222.171 139.207L210.558 127.435L213.995 133.238L221.409 143.779L238.479 150.018L250.988 146.758L257.357 144.539L240.89 146.049Z" fill="#C0AD9E" stroke="#C0AD9E" stroke-linecap="round" stroke-linejoin="round"/>
<path d="M244.935 131.663L243.333 129.41L230.987 124.898L228.31 125.587L223.596 135.03L224.98 134.424L241.783 140.565L242.539 141.952L244.935 131.663Z" fill="#161616" stroke="#161616" stroke-linecap="round" stroke-linejoin="round"/>
<path d="M308.693 96.0033L319.127 79.2032L319.641 60.2424L265.134 76.3955L276.526 96.3729L297.344 111.711L304.713 107.584L303.071 105.165L307.826 103.214L305.844 100.065L310.404 98.6495L308.693 96.0033Z" fill="#763D16" stroke="#763D16" stroke-linecap="round" stroke-linejoin="round"/>
<path d="M205.473 37.6661L202.616 57.2354L199.557 58.1386L202.129 62.1605L198.629 63.3062L201.005 67.863L198.19 68.6531L201.117 76.5433L226.919 78.2432L248.509 70.3197L217.263 22.8264L205.473 37.6661Z" fill="#763D16" stroke="#763D16" stroke-linecap="round" stroke-linejoin="round"/>
<path d="M297.344 111.711L276.526 96.3729L279.72 109.615L261.664 126.257L275.635 131.161L296.36 138.735L297.344 111.711Z" fill="#F6851B" stroke="#F6851B" stroke-linecap="round" stroke-linejoin="round"/>
<path d="M226.919 78.2432L201.117 76.5433L184.533 97.8661L205.214 105.424L219.01 110.668L215.984 86.3218L226.919 78.2432Z" fill="#F6851B" stroke="#F6851B" stroke-linecap="round" stroke-linejoin="round"/>
<path d="M254.264 101.575L265.134 76.3955L278.603 60.5531L248.518 49.558L248.509 70.3197L240.67 96.6069L238.24 104.914L230.987 124.898L243.333 129.41L250.72 109.475L254.264 101.575Z" fill="#F6851B" stroke="#F6851B" stroke-linecap="round" stroke-linejoin="round"/>
</g>
<defs>
<filter id="filter0_d" x="182.245" y="22.3264" width="152.895" height="153.901" filterUnits="userSpaceOnUse" color-interpolation-filters="sRGB">
<feFlood flood-opacity="0" result="BackgroundImageFix"/>
<feColorMatrix in="SourceAlpha" type="matrix" values="0 0 0 0 0 0 0 0 0 0 0 0 0 0 0 0 0 0 127 0"/>
<feOffset dx="10" dy="10"/>
<feGaussianBlur stdDeviation="2.5"/>
<feColorMatrix type="matrix" values="0 0 0 0 0.141176 0 0 0 0 0.152941 0 0 0 0 0.192157 0 0 0 0.25 0"/>
<feBlend mode="normal" in2="BackgroundImageFix" result="effect1_dropShadow"/>
<feBlend mode="normal" in="SourceGraphic" in2="effect1_dropShadow" result="shape"/>
</filter>
</defs>
</svg>
