<svg width="348" height="191" viewBox="0 0 348 191" fill="none" xmlns="http://www.w3.org/2000/svg">
<rect x="0.633545" width="347.122" height="190.673" rx="24" fill="#355DFF"/>
<path d="M65.6389 163.601H162.542V138.096H109.488V137.265L125.149 122.819C153.53 98.0821 160.944 85.4897 160.944 70.4684C160.944 46.8818 141.704 30.9017 111.981 30.9017C83.0253 30.9017 63.6574 47.5849 63.7213 74.2397H93.7C93.7 62.4144 100.987 55.575 111.853 55.575C122.528 55.575 130.262 62.1588 130.262 72.9613C130.262 82.7411 124.126 89.3889 113.387 99.0409L65.6389 140.845V163.601Z" fill="#242731" fill-opacity="0.25"/>
<path d="M31.3738 66.0551H28.2985V80.6005H31.3738V66.0551ZM33.8472 80.6005H36.8727V74.0522C36.8727 72.8448 37.6398 72.0423 38.6483 72.0423C39.6426 72.0423 40.3102 72.7241 40.3102 73.7965V80.6005H43.2435V73.9386C43.2435 72.8093 43.8898 72.0423 44.9906 72.0423C45.9565 72.0423 46.681 72.646 46.681 73.8605V80.6005H49.6994V73.2639C49.6994 70.8988 48.2932 69.5494 46.2619 69.5494C44.6639 69.5494 43.421 70.3661 42.9736 71.6161H42.8599C42.5119 70.3519 41.3969 69.5494 39.8983 69.5494C38.4281 69.5494 37.3131 70.3306 36.8585 71.6161H36.7307V69.6914H33.8472V80.6005ZM52.0893 84.6914H55.1149V78.8534H55.2072C55.6263 79.7625 56.5425 80.7781 58.3038 80.7781C60.7896 80.7781 62.7285 78.8108 62.7285 75.1602C62.7285 71.4102 60.7044 69.5494 58.3109 69.5494C56.4857 69.5494 55.6121 70.636 55.2072 71.5238H55.0723V69.6914H52.0893V84.6914ZM55.051 75.146C55.051 73.2 55.8749 71.9571 57.345 71.9571C58.8436 71.9571 59.6391 73.2568 59.6391 75.146C59.6391 77.0494 58.8294 78.3704 57.345 78.3704C55.8891 78.3704 55.051 77.092 55.051 75.146ZM69.6746 80.8136C72.9842 80.8136 75.0439 78.548 75.0439 75.1886C75.0439 71.8079 72.9842 69.5494 69.6746 69.5494C66.3649 69.5494 64.3053 71.8079 64.3053 75.1886C64.3053 78.548 66.3649 80.8136 69.6746 80.8136ZM69.6888 78.4698C68.1618 78.4698 67.3805 77.0707 67.3805 75.1673C67.3805 73.2639 68.1618 71.8576 69.6888 71.8576C71.1874 71.8576 71.9686 73.2639 71.9686 75.1673C71.9686 77.0707 71.1874 78.4698 69.6888 78.4698ZM77.0112 80.6005H80.0368V74.4286C80.0368 73.0863 81.0169 72.163 82.3521 72.163C82.7712 72.163 83.3464 72.234 83.6305 72.3264V69.6417C83.3607 69.5778 82.9842 69.5352 82.6788 69.5352C81.4572 69.5352 80.4558 70.2454 80.0581 71.5948H79.9445V69.6914H77.0112V80.6005ZM91.5442 69.6914H89.4917V67.0778H86.4661V69.6914H84.9746V71.9642H86.4661V77.646C86.4519 79.7838 87.9079 80.842 90.1025 80.7497C90.8837 80.7213 91.4377 80.565 91.7431 80.4656L91.2673 78.2142C91.1181 78.2426 90.7985 78.3136 90.5144 78.3136C89.9107 78.3136 89.4917 78.0863 89.4917 77.2483V71.9642H91.5442V69.6914ZM28.2985 104.601H34.513C37.78 104.601 39.5201 102.896 39.5201 100.581C39.5201 98.4286 37.9789 97.1289 36.3241 97.0508V96.9088C37.8369 96.5679 38.9519 95.4954 38.9519 93.7838C38.9519 91.6034 37.3326 90.0551 34.1224 90.0551H28.2985V104.601ZM31.3738 102.086V98.2227H33.9519C35.4292 98.2227 36.3454 99.075 36.3454 100.275C36.3454 101.369 35.5996 102.086 33.8809 102.086H31.3738ZM31.3738 96.1417V92.5409H33.7104C35.0741 92.5409 35.8482 93.244 35.8482 94.2951C35.8482 95.4457 34.9107 96.1417 33.6536 96.1417H31.3738ZM49.4118 94.2383H52.3592C52.3166 91.646 50.1859 89.8562 46.9473 89.8562C43.7584 89.8562 41.4217 91.6176 41.4359 94.2596C41.4288 96.4045 42.9416 97.6332 45.399 98.2227L46.9828 98.6204C48.5666 99.0039 49.4473 99.4585 49.4544 100.439C49.4473 101.504 48.4388 102.228 46.8763 102.228C45.2783 102.228 44.1277 101.49 44.0283 100.034H41.0524C41.1305 103.18 43.382 104.806 46.9118 104.806C50.4629 104.806 52.551 103.109 52.5581 100.446C52.551 98.0238 50.7257 96.7383 48.1973 96.1701L46.8905 95.8576C45.6263 95.5664 44.568 95.0977 44.5893 94.0536C44.5893 93.1161 45.4203 92.4272 46.926 92.4272C48.3962 92.4272 49.2982 93.0948 49.4118 94.2383ZM67.4604 95.1474C67.0556 91.788 64.513 89.8562 61.1465 89.8562C57.3042 89.8562 54.3709 92.5693 54.3709 97.3278C54.3709 102.072 57.2545 104.799 61.1465 104.799C64.8752 104.799 67.1266 102.321 67.4604 99.6431L64.3496 99.6289C64.0584 101.184 62.8369 102.079 61.1962 102.079C58.9874 102.079 57.4888 100.439 57.4888 97.3278C57.4888 94.3022 58.9661 92.5764 61.2175 92.5764C62.9008 92.5764 64.1153 93.5494 64.3496 95.1474H67.4604ZM77.2634 98.2937C77.2705 96.8875 78.1085 96.0636 79.3301 96.0636C80.5446 96.0636 81.2761 96.859 81.269 98.1943V104.601H84.2946V97.6545C84.2946 95.1119 82.8031 93.5494 80.5304 93.5494C78.9111 93.5494 77.7392 94.3448 77.2491 95.6161H77.1213V93.6914H74.2378V104.601H77.2634V98.2937ZM91.6508 104.814C94.3496 104.814 96.1678 103.5 96.594 101.476L93.7957 101.291C93.4903 102.122 92.709 102.555 91.7005 102.555C90.1877 102.555 89.2289 101.554 89.2289 99.9272V99.9201H96.6579V99.0892C96.6579 95.3818 94.4136 93.5494 91.53 93.5494C88.3198 93.5494 86.2388 95.8292 86.2388 99.1957C86.2388 102.655 88.2914 104.814 91.6508 104.814ZM89.2289 98.0451C89.2928 96.8022 90.2374 95.8079 91.5798 95.8079C92.8937 95.8079 93.8028 96.7454 93.8099 98.0451H89.2289ZM104.435 93.6914H102.382V91.0778H99.3567V93.6914H97.8653V95.9642H99.3567V101.646C99.3425 103.784 100.799 104.842 102.993 104.75C103.774 104.721 104.328 104.565 104.634 104.466L104.158 102.214C104.009 102.243 103.689 102.314 103.405 102.314C102.801 102.314 102.382 102.086 102.382 101.248V95.9642H104.435V93.6914ZM108.558 104.601H111.754L113.629 97.7397H113.764L115.639 104.601H118.842L121.803 93.6914H118.75L117.088 100.978H116.995L115.205 93.6914H112.201L110.44 101.021H110.34L108.65 93.6914H105.589L108.558 104.601ZM128.073 104.814C131.383 104.814 133.442 102.548 133.442 99.1886C133.442 95.8079 131.383 93.5494 128.073 93.5494C124.763 93.5494 122.704 95.8079 122.704 99.1886C122.704 102.548 124.763 104.814 128.073 104.814ZM128.087 102.47C126.56 102.47 125.779 101.071 125.779 99.1673C125.779 97.2639 126.56 95.8576 128.087 95.8576C129.586 95.8576 130.367 97.2639 130.367 99.1673C130.367 101.071 129.586 102.47 128.087 102.47ZM135.41 104.601H138.435V98.4286C138.435 97.0863 139.415 96.163 140.751 96.163C141.17 96.163 141.745 96.234 142.029 96.3264V93.6417C141.759 93.5778 141.383 93.5352 141.077 93.5352C139.856 93.5352 138.854 94.2454 138.457 95.5948H138.343V93.6914H135.41V104.601ZM143.593 104.601H146.619V101.135L147.436 100.204L150.411 104.601H153.955L149.701 98.4144L153.75 93.6914H150.276L146.782 97.8321H146.619V90.0551H143.593V104.601ZM37.3184 120.802C37.0485 118.792 35.4292 117.549 32.6735 117.549C29.8823 117.549 28.0428 118.842 28.0499 120.944C28.0428 122.578 29.0727 123.636 31.2033 124.062L33.0925 124.439C34.0442 124.63 34.4775 124.978 34.4917 125.525C34.4775 126.172 33.7744 126.633 32.7161 126.633C31.6366 126.633 30.9192 126.172 30.7346 125.284L27.7587 125.44C28.0428 127.528 29.8184 128.814 32.709 128.814C35.5357 128.814 37.5599 127.372 37.567 125.22C37.5599 123.643 36.53 122.699 34.4136 122.265L32.4391 121.868C31.4235 121.647 31.0471 121.299 31.0542 120.774C31.0471 120.12 31.7857 119.694 32.7232 119.694C33.7744 119.694 34.3994 120.27 34.5485 120.973L37.3184 120.802ZM44.4437 128.814C47.1426 128.814 48.9608 127.5 49.3869 125.476L46.5886 125.291C46.2832 126.122 45.502 126.555 44.4935 126.555C42.9807 126.555 42.0219 125.554 42.0219 123.927V123.92H49.4509V123.089C49.4509 119.382 47.2065 117.549 44.323 117.549C41.1128 117.549 39.0318 119.829 39.0318 123.196C39.0318 126.655 41.0844 128.814 44.4437 128.814ZM42.0219 122.045C42.0858 120.802 43.0304 119.808 44.3727 119.808C45.6866 119.808 46.5957 120.745 46.6028 122.045H42.0219ZM57.2278 117.691H55.1753V115.078H52.1497V117.691H50.6582V119.964H52.1497V125.646C52.1355 127.784 53.5915 128.842 55.7861 128.75C56.5673 128.721 57.1213 128.565 57.4267 128.466L56.9509 126.214C56.8017 126.243 56.4821 126.314 56.198 126.314C55.5943 126.314 55.1753 126.086 55.1753 125.248V119.964H57.2278V117.691ZM65.0013 117.691H62.9487V115.078H59.9232V117.691H58.4317V119.964H59.9232V125.646C59.9089 127.784 61.3649 128.842 63.5595 128.75C64.3408 128.721 64.8947 128.565 65.2001 128.466L64.7243 126.214C64.5751 126.243 64.2555 126.314 63.9714 126.314C63.3678 126.314 62.9487 126.086 62.9487 125.248V119.964H65.0013V117.691ZM66.9722 128.601H69.9977V117.691H66.9722V128.601ZM68.492 116.285C69.394 116.285 70.1327 115.596 70.1327 114.751C70.1327 113.913 69.394 113.224 68.492 113.224C67.5972 113.224 66.8585 113.913 66.8585 114.751C66.8585 115.596 67.5972 116.285 68.492 116.285ZM75.4469 122.294C75.454 120.887 76.2921 120.064 77.5137 120.064C78.7282 120.064 79.4597 120.859 79.4526 122.194V128.601H82.4782V121.655C82.4782 119.112 80.9867 117.549 78.714 117.549C77.0947 117.549 75.9228 118.345 75.4327 119.616H75.3049V117.691H72.4214V128.601H75.4469V122.294ZM89.7776 132.919C92.8955 132.919 95.1114 131.498 95.1114 128.707V117.691H92.1071V119.524H91.9935C91.5886 118.636 90.7009 117.549 88.8756 117.549C86.4821 117.549 84.458 119.41 84.458 123.125C84.458 126.754 86.4253 128.444 88.8827 128.444C90.6227 128.444 91.5957 127.571 91.9935 126.669H92.1213V128.664C92.1213 130.163 91.1625 130.745 89.8486 130.745C88.5134 130.745 87.8386 130.163 87.5901 129.503L84.7918 129.879C85.154 131.598 86.8372 132.919 89.7776 132.919ZM89.8415 126.172C88.3571 126.172 87.5474 124.993 87.5474 123.11C87.5474 121.257 88.3429 119.957 89.8415 119.957C91.3116 119.957 92.1355 121.2 92.1355 123.11C92.1355 125.035 91.2974 126.172 89.8415 126.172ZM106.596 120.802C106.326 118.792 104.707 117.549 101.951 117.549C99.1597 117.549 97.3202 118.842 97.3273 120.944C97.3202 122.578 98.35 123.636 100.481 124.062L102.37 124.439C103.322 124.63 103.755 124.978 103.769 125.525C103.755 126.172 103.052 126.633 101.993 126.633C100.914 126.633 100.197 126.172 100.012 125.284L97.0361 125.44C97.3202 127.528 99.0957 128.814 101.986 128.814C104.813 128.814 106.837 127.372 106.844 125.22C106.837 123.643 105.807 122.699 103.691 122.265L101.716 121.868C100.701 121.647 100.324 121.299 100.332 120.774C100.324 120.12 101.063 119.694 102.001 119.694C103.052 119.694 103.677 120.27 103.826 120.973L106.596 120.802Z" fill="white"/>
<g filter="url(#filter0_d)">
<path d="M227.995 90.6886L249.613 62.2019L278.115 83.83L290.693 67.254L245.615 33.0451L211.42 78.1097L227.995 90.6886Z" fill="#F3BA2F"/>
<path d="M202.536 89.8126L219.112 102.392L206.534 118.967L189.957 106.388L202.536 89.8126Z" fill="#F3BA2F"/>
<path d="M230.817 111.275L259.305 132.892L280.933 104.391L297.516 116.961L297.51 116.97L263.302 162.049L218.238 127.852L218.215 127.835L230.817 111.275Z" fill="#F3BA2F"/>
<path d="M289.807 92.7055L302.386 76.1291L318.962 88.7073L306.383 105.284L289.807 92.7055Z" fill="#F3BA2F"/>
<path d="M269.243 95.512L269.25 95.5111L252.43 82.747L242.997 95.1776L242.996 95.1777L241.912 96.6063L239.677 99.5525L239.659 99.5754L239.683 99.5938L256.488 112.347L269.252 95.5266L269.258 95.5172L269.243 95.512Z" fill="#F3BA2F"/>
</g>
<defs>
<filter id="filter0_d" x="189.957" y="33.0451" width="144.004" height="144.004" filterUnits="userSpaceOnUse" color-interpolation-filters="sRGB">
<feFlood flood-opacity="0" result="BackgroundImageFix"/>
<feColorMatrix in="SourceAlpha" type="matrix" values="0 0 0 0 0 0 0 0 0 0 0 0 0 0 0 0 0 0 127 0"/>
<feOffset dx="10" dy="10"/>
<feGaussianBlur stdDeviation="2.5"/>
<feColorMatrix type="matrix" values="0 0 0 0 0.141176 0 0 0 0 0.152941 0 0 0 0 0.192157 0 0 0 0.25 0"/>
<feBlend mode="normal" in2="BackgroundImageFix" result="effect1_dropShadow"/>
<feBlend mode="normal" in="SourceGraphic" in2="effect1_dropShadow" result="shape"/>
</filter>
</defs>
</svg>
