<svg width="348" height="191" viewBox="0 0 348 191" fill="none" xmlns="http://www.w3.org/2000/svg">
<rect x="0.266968" width="347.122" height="190.673" rx="24" fill="#355DFF"/>
<path d="M109.793 165.39C140.475 165.39 162.272 149.155 162.208 126.399C162.272 110.291 151.725 98.7852 131.526 96.4201V95.3974C146.675 93.2241 157.414 83.0608 157.35 68.359C157.414 47.0096 138.11 30.9017 110.049 30.9017C81.7958 30.9017 61.2134 47.2653 60.9577 70.5323H91.1921C91.4478 61.5835 99.5017 55.575 110.049 55.575C120.084 55.575 126.924 61.6474 126.86 70.4045C126.924 79.4812 118.87 85.7454 107.236 85.7454H94.5159V108.245H107.236C120.468 108.245 129.097 114.765 128.969 123.97C129.097 133.238 121.171 139.694 109.921 139.694C98.7347 139.694 90.489 133.75 90.1694 125.12H58.337C58.5926 148.771 79.8782 165.39 109.793 165.39Z" fill="#242731" fill-opacity="0.25"/>
<path d="M40.7658 83.1474C40.361 79.788 37.8184 77.8562 34.4519 77.8562C30.6095 77.8562 27.6763 80.5693 27.6763 85.3278C27.6763 90.0721 30.5598 92.7994 34.4519 92.7994C38.1806 92.7994 40.432 90.3207 40.7658 87.6431L37.655 87.6289C37.3638 89.1843 36.1422 90.0792 34.5016 90.0792C32.2928 90.0792 30.7942 88.4386 30.7942 85.3278C30.7942 82.3022 32.2715 80.5764 34.5229 80.5764C36.2061 80.5764 37.4206 81.5494 37.655 83.1474H40.7658ZM47.8432 92.8136C51.1529 92.8136 53.2125 90.548 53.2125 87.1886C53.2125 83.8079 51.1529 81.5494 47.8432 81.5494C44.5336 81.5494 42.4739 83.8079 42.4739 87.1886C42.4739 90.548 44.5336 92.8136 47.8432 92.8136ZM47.8574 90.4698C46.3304 90.4698 45.5492 89.0707 45.5492 87.1673C45.5492 85.2639 46.3304 83.8576 47.8574 83.8576C49.356 83.8576 50.1372 85.2639 50.1372 87.1673C50.1372 89.0707 49.356 90.4698 47.8574 90.4698ZM58.2054 86.2937C58.2125 84.8875 59.0506 84.0636 60.2722 84.0636C61.4867 84.0636 62.2182 84.859 62.2111 86.1943V92.6005H65.2367V85.6545C65.2367 83.1119 63.7452 81.5494 61.4725 81.5494C59.8532 81.5494 58.6813 82.3448 58.1912 83.6161H58.0634V81.6914H55.1799V92.6005H58.2054V86.2937ZM70.6468 86.2937C70.6539 84.8875 71.492 84.0636 72.7136 84.0636C73.9281 84.0636 74.6596 84.859 74.6525 86.1943V92.6005H77.6781V85.6545C77.6781 83.1119 76.1866 81.5494 73.9139 81.5494C72.2946 81.5494 71.1227 82.3448 70.6326 83.6161H70.5048V81.6914H67.6213V92.6005H70.6468V86.2937ZM85.0343 92.8136C87.7331 92.8136 89.5513 91.4997 89.9774 89.4755L87.1791 89.2909C86.8738 90.1218 86.0925 90.5551 85.084 90.5551C83.5712 90.5551 82.6124 89.5536 82.6124 87.9272V87.9201H90.0414V87.0892C90.0414 83.3818 87.797 81.5494 84.9135 81.5494C81.7033 81.5494 79.6223 83.8292 79.6223 87.1957C79.6223 90.6545 81.6749 92.8136 85.0343 92.8136ZM82.6124 86.0451C82.6763 84.8022 83.6209 83.8079 84.9632 83.8079C86.2772 83.8079 87.1863 84.7454 87.1934 86.0451H82.6124ZM96.9448 92.8136C99.8496 92.8136 101.675 91.109 101.817 88.6019H98.9618C98.7843 89.7667 98.0172 90.4201 96.9803 90.4201C95.5669 90.4201 94.6507 89.234 94.6507 87.146C94.6507 85.0863 95.574 83.9073 96.9803 83.9073C98.0882 83.9073 98.7985 84.6389 98.9618 85.7255H101.817C101.689 83.2042 99.7786 81.5494 96.9306 81.5494C93.6209 81.5494 91.5755 83.8434 91.5755 87.1886C91.5755 90.5054 93.5854 92.8136 96.9448 92.8136ZM109.557 81.6914H107.504V79.0778H104.479V81.6914H102.987V83.9642H104.479V89.646C104.464 91.7838 105.92 92.842 108.115 92.7497C108.896 92.7213 109.45 92.565 109.755 92.4656L109.28 90.2142C109.13 90.2426 108.811 90.3136 108.527 90.3136C107.923 90.3136 107.504 90.0863 107.504 89.2483V83.9642H109.557V81.6914ZM30.986 116.806C32.5982 116.806 33.6422 116.103 34.1749 115.088H34.2601V116.601H37.1294V109.243C37.1294 106.643 34.9277 105.549 32.4988 105.549C29.8851 105.549 28.1664 106.799 27.7473 108.788L30.5456 109.015C30.7516 108.291 31.3979 107.758 32.4845 107.758C33.5144 107.758 34.1039 108.277 34.1039 109.172V109.214C34.1039 109.917 33.3581 110.01 31.4618 110.194C29.3027 110.393 27.3638 111.118 27.3638 113.554C27.3638 115.713 28.905 116.806 30.986 116.806ZM31.8524 114.718C30.922 114.718 30.2544 114.285 30.2544 113.454C30.2544 112.602 30.9576 112.183 32.0229 112.034C32.6834 111.941 33.763 111.785 34.1252 111.544V112.701C34.1252 113.845 33.1806 114.718 31.8524 114.718ZM46.2576 116.601H49.4537L51.3287 109.74H51.4636L53.3386 116.601H56.5417L59.5034 105.691H56.4494L54.7875 112.978H54.6951L52.9054 105.691H49.9011L48.1397 113.021H48.0403L46.35 105.691H43.2889L46.2576 116.601ZM64.2282 116.806C65.8404 116.806 66.8844 116.103 67.4171 115.088H67.5023V116.601H70.3716V109.243C70.3716 106.643 68.1699 105.549 65.7409 105.549C63.1273 105.549 61.4086 106.799 60.9895 108.788L63.7878 109.015C63.9938 108.291 64.6401 107.758 65.7267 107.758C66.7566 107.758 67.3461 108.277 67.3461 109.172V109.214C67.3461 109.917 66.6003 110.01 64.704 110.194C62.5449 110.393 60.606 111.118 60.606 113.554C60.606 115.713 62.1472 116.806 64.2282 116.806ZM65.0946 114.718C64.1642 114.718 63.4966 114.285 63.4966 113.454C63.4966 112.602 64.1997 112.183 65.2651 112.034C65.9256 111.941 67.0051 111.785 67.3674 111.544V112.701C67.3674 113.845 66.4228 114.718 65.0946 114.718ZM75.7445 102.055H72.7189V116.601H75.7445V102.055ZM81.1937 102.055H78.1681V116.601H81.1937V102.055ZM88.589 116.814C91.2878 116.814 93.106 115.5 93.5321 113.476L90.7338 113.291C90.4284 114.122 89.6472 114.555 88.6387 114.555C87.1259 114.555 86.1671 113.554 86.1671 111.927V111.92H93.5961V111.089C93.5961 107.382 91.3517 105.549 88.4682 105.549C85.258 105.549 83.177 107.829 83.177 111.196C83.177 114.655 85.2296 116.814 88.589 116.814ZM86.1671 110.045C86.231 108.802 87.1756 107.808 88.5179 107.808C89.8318 107.808 90.7409 108.745 90.748 110.045H86.1671ZM101.373 105.691H99.3205V103.078H96.2949V105.691H94.8034V107.964H96.2949V113.646C96.2807 115.784 97.7367 116.842 99.9313 116.75C100.713 116.721 101.267 116.565 101.572 116.466L101.096 114.214C100.947 114.243 100.627 114.314 100.343 114.314C99.7395 114.314 99.3205 114.086 99.3205 113.248V107.964H101.373V105.691Z" fill="white"/>
<g filter="url(#filter0_d)">
<path d="M300.137 67.3337C300.404 67.8836 300.422 68.4895 300.236 69.0242C300.05 69.5589 299.66 70.023 299.11 70.2893L291.057 74.1902L289.128 70.2078L297.182 66.307C298.281 65.7743 299.604 66.234 300.137 67.3337Z" fill="#FD6000"/>
<path d="M283.003 38.2973L312.045 98.2592C312.668 99.5436 312.131 101.089 310.846 101.711L217.167 147.085L189.907 90.804C189.907 90.804 189.003 88.9384 187.889 86.6381C187.331 85.4874 187.294 84.2202 187.682 83.1009C188.071 81.9815 188.887 81.0115 190.037 80.4546L279.551 37.0983C280.835 36.4758 282.381 37.0126 283.003 38.2973Z" fill="#C44500"/>
<path d="M220.968 86.9856C228.862 83.1624 232.161 73.6642 228.338 65.7707C224.515 57.8773 215.017 54.5777 207.123 58.4009C199.23 62.2241 195.93 71.7224 199.754 79.6158C203.577 87.5093 213.075 90.8088 220.968 86.9856Z" fill="#FFC800"/>
<path d="M207.73 59.6534C215.414 55.9318 224.617 58.96 228.627 66.404C228.535 66.1919 228.44 65.9805 228.338 65.7707C224.515 57.8773 215.017 54.5777 207.123 58.4009C199.23 62.2241 195.93 71.7224 199.754 79.6158C199.855 79.8259 199.962 80.0315 200.071 80.235C196.717 72.4735 200.046 63.375 207.73 59.6534Z" fill="#FFCD7D"/>
<path d="M219.377 83.7C225.456 80.7557 227.997 73.441 225.053 67.3622C222.108 61.2833 214.794 58.7423 208.715 61.6866C202.636 64.6309 200.095 71.9456 203.039 78.0244C205.984 84.1033 213.298 86.6443 219.377 83.7Z" fill="#FF9E24"/>
<path d="M260.858 67.665C268.751 63.8418 272.051 54.3436 268.228 46.4501C264.405 38.5567 254.906 35.2571 247.013 39.0803C239.119 42.9035 235.82 52.4017 239.643 60.2952C243.466 68.1886 252.965 71.4882 260.858 67.665Z" fill="#FFC800"/>
<path d="M247.62 40.3328C255.303 36.6112 264.506 39.6394 268.517 47.0834C268.425 46.8713 268.329 46.6599 268.228 46.4501C264.405 38.5567 254.906 35.2571 247.013 39.0803C239.12 42.9035 235.82 52.4018 239.643 60.2952C239.745 60.5052 239.851 60.7109 239.961 60.9144C236.606 53.1528 239.936 44.0544 247.62 40.3328Z" fill="#FFCD7D"/>
<path d="M259.267 64.3794C265.345 61.4351 267.886 54.1204 264.942 48.0415C261.998 41.9627 254.683 39.4216 248.604 42.3659C242.525 45.3103 239.984 52.625 242.929 58.7038C245.873 64.7827 253.188 67.3237 259.267 64.3794Z" fill="#FF9E24"/>
<path d="M236.489 68.1904C244.382 64.3672 247.682 54.8689 243.859 46.9755C240.035 39.082 230.537 35.7824 222.644 39.6057C214.75 43.4289 211.451 52.9271 215.274 60.8206C219.097 68.714 228.595 72.0136 236.489 68.1904Z" fill="#FFC800"/>
<path d="M223.25 40.8582C230.934 37.1366 240.137 40.1648 244.147 47.6088C244.056 47.3966 243.96 47.1852 243.859 46.9755C240.035 39.0821 230.537 35.7825 222.644 39.6057C214.75 43.4288 211.451 52.9272 215.274 60.8206C215.376 61.0306 215.482 61.2363 215.592 61.4398C212.237 53.6782 215.567 44.5797 223.25 40.8582Z" fill="#FFCD7D"/>
<path d="M234.897 64.9047C240.976 61.9604 243.517 54.6457 240.573 48.5669C237.629 42.488 230.314 39.947 224.235 42.8913C218.156 45.8356 215.615 53.1503 218.559 59.2291C221.504 65.308 228.818 67.849 234.897 64.9047Z" fill="#FF9E24"/>
<path d="M278.54 48.3479L280.372 52.13L199.367 91.3647C197.059 92.4828 194.196 91.5378 193.095 89.2214C192.552 88.0789 192.518 86.8242 192.903 85.7148C193.292 84.5955 194.108 83.6255 195.258 83.0685L271.786 46.0018C274.299 44.7847 277.323 45.8351 278.54 48.3479Z" fill="#F77E00"/>
<path d="M194.073 88.7861C191.772 89.9004 189.003 88.9382 187.889 86.638L189.907 90.8038L220.076 153.091C220.698 154.376 222.244 154.913 223.528 154.291L311.905 111.485C313.189 110.863 313.726 109.317 313.104 108.033L284.062 48.0711C283.439 46.7867 281.894 46.2497 280.609 46.8718L194.073 88.7861V88.7861Z" fill="#F05B00"/>
<path d="M223.565 148.615L221.482 149.624C221.252 149.735 220.975 149.639 220.864 149.409C220.753 149.179 220.849 148.902 221.079 148.791L223.162 147.782C223.392 147.67 223.668 147.767 223.78 147.997C223.891 148.227 223.795 148.503 223.565 148.615Z" fill="#FF9100"/>
<path fill-rule="evenodd" clip-rule="evenodd" d="M200.438 92.389L204.6 90.3731C204.83 90.2617 204.927 89.9851 204.815 89.7549C204.704 89.525 204.427 89.4286 204.197 89.5401L200.035 91.5561C199.805 91.6675 199.708 91.9441 199.82 92.1743C199.931 92.4042 200.208 92.5005 200.438 92.389ZM217.086 84.3254L221.249 82.3094C221.478 82.1981 221.575 81.9214 221.463 81.6913C221.352 81.4613 221.075 81.365 220.845 81.4765L216.683 83.4925C216.453 83.6038 216.357 83.8805 216.468 84.1107C216.579 84.3406 216.856 84.4369 217.086 84.3254ZM233.735 76.2618L237.897 74.2458C238.127 74.1343 238.223 73.8577 238.112 73.6276C238 73.3977 237.724 73.3014 237.493 73.4129L233.331 75.4288C233.101 75.5402 233.005 75.8168 233.116 76.047C233.228 76.2769 233.504 76.3733 233.735 76.2618ZM250.383 68.198L254.545 66.1821C254.775 66.0707 254.872 65.7941 254.76 65.5639C254.649 65.334 254.372 65.2376 254.142 65.3491L249.98 67.3651C249.75 67.4765 249.653 67.7531 249.765 67.9833C249.876 68.2132 250.153 68.3095 250.383 68.198ZM267.032 60.1343L271.194 58.1184C271.424 58.0069 271.52 57.7303 271.409 57.5001C271.297 57.2702 271.021 57.1738 270.79 57.2853L266.628 59.3013C266.398 59.4127 266.302 59.6893 266.414 59.9195C266.525 60.1494 266.801 60.2458 267.032 60.1343ZM279.594 54.3475C279.528 54.3796 279.453 54.3963 279.374 54.3931C279.079 54.381 278.781 54.4433 278.513 54.5731L275.356 56.1023C275.126 56.2138 274.849 56.1175 274.738 55.8876C274.626 55.6574 274.723 55.3807 274.953 55.2694L278.11 53.7401C278.515 53.5441 278.965 53.45 279.412 53.4683C279.667 53.4786 279.866 53.6942 279.856 53.9495C279.848 54.1262 279.743 54.2756 279.594 54.3475ZM283.893 61.5275C284.005 61.7574 284.281 61.8537 284.511 61.7422C284.741 61.6308 284.837 61.3539 284.726 61.124L282.71 56.9618C282.599 56.7319 282.322 56.6356 282.092 56.7471C281.862 56.8584 281.766 57.1351 281.877 57.3653L283.893 61.5275ZM288.543 70.0663C288.313 70.1778 288.036 70.0815 287.925 69.8516L285.909 65.6894C285.798 65.4592 285.894 65.1825 286.124 65.0712C286.354 64.9597 286.631 65.056 286.742 65.2859L288.758 69.4481C288.869 69.678 288.773 69.955 288.543 70.0663ZM291.957 78.1757C292.068 78.4056 292.345 78.5019 292.575 78.3904C292.805 78.2791 292.901 78.0024 292.79 77.7722L290.774 73.6103C290.663 73.3804 290.386 73.2841 290.156 73.3956C289.926 73.5069 289.829 73.7836 289.941 74.0138L291.957 78.1757ZM296.607 86.7149C296.377 86.8264 296.1 86.7301 295.989 86.5001L293.973 82.3382C293.861 82.108 293.958 81.8314 294.188 81.72C294.418 81.6085 294.695 81.7049 294.806 81.9348L296.822 86.0967C296.933 86.3266 296.837 86.6035 296.607 86.7149ZM300.021 94.8242C300.132 95.0541 300.409 95.1505 300.639 95.039C300.869 94.9276 300.965 94.6507 300.854 94.4208L298.838 90.2589C298.726 90.0289 298.45 89.9326 298.219 90.0441C297.99 90.1555 297.893 90.4321 298.005 90.6623L300.021 94.8242ZM304.671 103.363C304.44 103.475 304.164 103.378 304.052 103.148L302.037 98.9864C301.925 98.7563 302.021 98.4796 302.251 98.3683C302.481 98.2568 302.758 98.3531 302.869 98.583L304.885 102.745C304.997 102.975 304.9 103.252 304.671 103.363ZM302.645 110.312L304.966 109.188C305.721 108.822 306.26 108.143 306.443 107.324C306.499 107.074 306.343 106.827 306.093 106.771C305.844 106.715 305.596 106.872 305.54 107.121C305.418 107.663 305.062 108.113 304.563 108.355L302.242 109.479C302.012 109.591 301.915 109.868 302.027 110.098C302.138 110.327 302.415 110.424 302.645 110.312ZM294.321 114.344L298.483 112.328C298.713 112.217 298.809 111.94 298.698 111.71C298.586 111.48 298.31 111.384 298.08 111.495L293.917 113.511C293.687 113.623 293.591 113.9 293.702 114.13C293.814 114.359 294.091 114.456 294.321 114.344ZM290.159 116.36L285.996 118.376C285.766 118.488 285.49 118.391 285.378 118.161C285.267 117.931 285.363 117.654 285.593 117.543L289.755 115.527C289.985 115.416 290.262 115.512 290.373 115.742C290.485 115.972 290.389 116.249 290.159 116.36ZM277.672 122.408L281.835 120.392C282.064 120.281 282.161 120.004 282.049 119.774C281.938 119.544 281.661 119.447 281.431 119.559L277.269 121.575C277.039 121.686 276.943 121.963 277.054 122.193C277.165 122.423 277.442 122.519 277.672 122.408ZM273.51 124.424L269.348 126.44C269.118 126.551 268.841 126.455 268.73 126.225C268.619 125.995 268.715 125.718 268.945 125.607L273.107 123.591C273.337 123.479 273.614 123.576 273.725 123.806C273.836 124.035 273.74 124.312 273.51 124.424ZM261.024 130.472L265.186 128.456C265.416 128.344 265.512 128.067 265.401 127.837C265.289 127.608 265.013 127.511 264.783 127.623L260.62 129.639C260.39 129.75 260.294 130.027 260.406 130.257C260.517 130.487 260.794 130.583 261.024 130.472ZM256.862 132.487L252.7 134.503C252.47 134.615 252.193 134.519 252.082 134.289C251.97 134.059 252.066 133.782 252.296 133.671L256.458 131.655C256.689 131.543 256.965 131.639 257.077 131.869C257.188 132.099 257.092 132.376 256.862 132.487ZM244.376 138.535L248.538 136.519C248.768 136.408 248.864 136.131 248.753 135.901C248.641 135.671 248.365 135.575 248.134 135.686L243.972 137.702C243.742 137.814 243.646 138.091 243.757 138.321C243.869 138.55 244.145 138.647 244.376 138.535ZM240.214 140.551L236.051 142.567C235.821 142.679 235.545 142.582 235.433 142.352C235.322 142.122 235.418 141.846 235.648 141.734L239.81 139.718C240.04 139.607 240.317 139.703 240.428 139.933C240.54 140.163 240.444 140.44 240.214 140.551ZM227.727 146.599L231.889 144.583C232.119 144.472 232.216 144.195 232.104 143.965C231.993 143.735 231.716 143.639 231.486 143.75L227.324 145.766C227.094 145.877 226.998 146.154 227.109 146.384C227.22 146.614 227.497 146.71 227.727 146.599ZM262.869 62.1503L258.707 64.1662C258.477 64.2777 258.2 64.1814 258.089 63.9515C257.978 63.7213 258.074 63.4446 258.304 63.3333L262.466 61.3173C262.696 61.2058 262.973 61.3022 263.084 61.5321C263.196 61.7623 263.1 62.0388 262.869 62.1503ZM246.221 70.2139L242.059 72.2299C241.829 72.3413 241.552 72.245 241.441 72.0151C241.329 71.7849 241.426 71.5083 241.656 71.3969L245.818 69.3809C246.048 69.2694 246.325 69.3658 246.436 69.5957C246.547 69.8259 246.451 70.1025 246.221 70.2139ZM229.573 78.2776L225.41 80.2936C225.18 80.4051 224.904 80.3088 224.792 80.0789C224.681 79.8487 224.777 79.572 225.007 79.4607L229.169 77.4447C229.399 77.3332 229.676 77.4295 229.787 77.6594C229.899 77.8895 229.803 78.1661 229.573 78.2776ZM212.924 86.3413L208.762 88.3573C208.532 88.4688 208.255 88.3724 208.144 88.1425C208.033 87.9123 208.129 87.6357 208.359 87.5243L212.521 85.5083C212.751 85.3968 213.028 85.4932 213.139 85.7231C213.251 85.9533 213.154 86.2299 212.924 86.3413Z" fill="#FF9100"/>
<path d="M196.241 94.3306C196.218 94.342 196.193 94.3516 196.167 94.359C195.305 94.6072 194.467 94.6695 193.676 94.5436C193.424 94.5036 193.251 94.2663 193.292 94.0137C193.332 93.7612 193.569 93.5889 193.822 93.6292C194.478 93.7334 195.181 93.6795 195.911 93.4691C196.157 93.3981 196.413 93.5401 196.484 93.7859C196.547 94.0057 196.44 94.2342 196.241 94.3306Z" fill="#FF9100"/>
<path d="M300.236 69.0245C300.05 69.5592 299.66 70.0233 299.111 70.2896L283.707 77.7503C279.659 79.7111 277.967 84.5827 279.927 88.6303L279.927 88.6311C281.888 92.6786 286.759 94.371 290.808 92.4102L306.118 84.9945C307.269 84.437 307.75 83.052 307.193 81.901L301.102 69.3252L300.137 67.3337C300.404 67.8839 300.423 68.4898 300.236 69.0245Z" fill="#FF8633"/>
<path d="M288.872 88.4134C290.712 87.5218 291.482 85.3069 290.59 83.4662C289.699 81.6255 287.484 80.856 285.643 81.7476C283.802 82.6391 283.033 84.8541 283.924 86.6948C284.816 88.5355 287.031 89.3049 288.872 88.4134Z" fill="#FFCD7D"/>
</g>
<defs>
<filter id="filter0_d" x="187.425" y="36.839" width="140.938" height="132.711" filterUnits="userSpaceOnUse" color-interpolation-filters="sRGB">
<feFlood flood-opacity="0" result="BackgroundImageFix"/>
<feColorMatrix in="SourceAlpha" type="matrix" values="0 0 0 0 0 0 0 0 0 0 0 0 0 0 0 0 0 0 127 0"/>
<feOffset dx="10" dy="10"/>
<feGaussianBlur stdDeviation="2.5"/>
<feColorMatrix type="matrix" values="0 0 0 0 0.141176 0 0 0 0 0.152941 0 0 0 0 0.192157 0 0 0 0.25 0"/>
<feBlend mode="normal" in2="BackgroundImageFix" result="effect1_dropShadow"/>
<feBlend mode="normal" in="SourceGraphic" in2="effect1_dropShadow" result="shape"/>
</filter>
</defs>
</svg>
