<svg width="348" height="191" viewBox="0 0 348 191" fill="none" xmlns="http://www.w3.org/2000/svg">
<rect x="0.878296" width="347.122" height="190.673" rx="24" fill="#355DFF"/>
<path d="M54.9692 141.868H118.187V163.601H148.421V141.868H164.081V116.939H148.421V32.6914H108.599L54.9692 117.194V141.868ZM118.826 116.939H86.4181V115.916L117.803 66.1858H118.826V116.939Z" fill="#242731" fill-opacity="0.25"/>
<path d="M41.3771 71.1474C40.9723 67.788 38.4297 65.8562 35.0632 65.8562C31.2209 65.8562 28.2876 68.5693 28.2876 73.3278C28.2876 78.0721 31.1712 80.7994 35.0632 80.7994C38.7919 80.7994 41.0433 78.3207 41.3771 75.6431L38.2663 75.6289C37.9751 77.1843 36.7535 78.0792 35.1129 78.0792C32.9041 78.0792 31.4055 76.4386 31.4055 73.3278C31.4055 70.3022 32.8828 68.5764 35.1342 68.5764C36.8175 68.5764 38.032 69.5494 38.2663 71.1474H41.3771ZM43.5256 80.6005H46.5511V74.4286C46.5511 73.0863 47.5312 72.163 48.8665 72.163C49.2855 72.163 49.8608 72.234 50.1449 72.3264V69.6417C49.875 69.5778 49.4986 69.5352 49.1932 69.5352C47.9716 69.5352 46.9702 70.2454 46.5724 71.5948H46.4588V69.6914H43.5256V80.6005ZM56.1729 80.8136C58.8718 80.8136 60.69 79.4997 61.1161 77.4755L58.3178 77.2909C58.0124 78.1218 57.2312 78.5551 56.2227 78.5551C54.7099 78.5551 53.7511 77.5536 53.7511 75.9272V75.9201H61.18V75.0892C61.18 71.3818 58.9357 69.5494 56.0522 69.5494C52.842 69.5494 50.761 71.8292 50.761 75.1957C50.761 78.6545 52.8136 80.8136 56.1729 80.8136ZM53.7511 74.0451C53.815 72.8022 54.7596 71.8079 56.1019 71.8079C57.4158 71.8079 58.3249 72.7454 58.332 74.0451H53.7511ZM66.2653 80.8065C67.8775 80.8065 68.9215 80.1034 69.4542 79.0877H69.5394V80.6005H72.4087V73.2426C72.4087 70.6431 70.207 69.5494 67.778 69.5494C65.1644 69.5494 63.4457 70.7994 63.0266 72.788L65.8249 73.0153C66.0309 72.2909 66.6772 71.7582 67.7638 71.7582C68.7937 71.7582 69.3832 72.2767 69.3832 73.1715V73.2142C69.3832 73.9173 68.6374 74.0096 66.7411 74.1943C64.582 74.3931 62.6431 75.1176 62.6431 77.5536C62.6431 79.7127 64.1843 80.8065 66.2653 80.8065ZM67.1317 78.7184C66.2013 78.7184 65.5337 78.2852 65.5337 77.4542C65.5337 76.6019 66.2369 76.1829 67.3022 76.0338C67.9627 75.9414 69.0423 75.7852 69.4045 75.5437V76.7014C69.4045 77.8448 68.4599 78.7184 67.1317 78.7184ZM80.5586 69.6914H78.506V67.0778H75.4805V69.6914H73.989V71.9642H75.4805V77.646C75.4663 79.7838 76.9222 80.842 79.1168 80.7497C79.8981 80.7213 80.4521 80.565 80.7575 80.4656L80.2816 78.2142C80.1325 78.2426 79.8128 78.3136 79.5288 78.3136C78.9251 78.3136 78.506 78.0863 78.506 77.2483V71.9642H80.5586V69.6914ZM87.3839 80.8136C90.0827 80.8136 91.9009 79.4997 92.3271 77.4755L89.5288 77.2909C89.2234 78.1218 88.4421 78.5551 87.4336 78.5551C85.9208 78.5551 84.962 77.5536 84.962 75.9272V75.9201H92.391V75.0892C92.391 71.3818 90.1467 69.5494 87.2631 69.5494C84.0529 69.5494 81.9719 71.8292 81.9719 75.1957C81.9719 78.6545 84.0245 80.8136 87.3839 80.8136ZM84.962 74.0451C85.0259 72.8022 85.9705 71.8079 87.3128 71.8079C88.6268 71.8079 89.5359 72.7454 89.543 74.0451H84.962ZM31.5973 104.806C33.2095 104.806 34.2535 104.103 34.7862 103.088H34.8714V104.601H37.7408V97.2426C37.7408 94.6431 35.5391 93.5494 33.1101 93.5494C30.4964 93.5494 28.7777 94.7994 28.3587 96.788L31.157 97.0153C31.3629 96.2909 32.0092 95.7582 33.0959 95.7582C34.1257 95.7582 34.7152 96.2767 34.7152 97.1715V97.2142C34.7152 97.9173 33.9695 98.0096 32.0731 98.1943C29.9141 98.3931 27.9751 99.1176 27.9751 101.554C27.9751 103.713 29.5163 104.806 31.5973 104.806ZM32.4638 102.718C31.5334 102.718 30.8658 102.285 30.8658 101.454C30.8658 100.602 31.5689 100.183 32.6342 100.034C33.2947 99.9414 34.3743 99.7852 34.7365 99.5437V100.701C34.7365 101.845 33.7919 102.718 32.4638 102.718ZM43.1136 98.2937C43.1207 96.8875 43.9588 96.0636 45.1804 96.0636C46.3949 96.0636 47.1264 96.859 47.1193 98.1943V104.601H50.1449V97.6545C50.1449 95.1119 48.6534 93.5494 46.3807 93.5494C44.7614 93.5494 43.5895 94.3448 43.0994 95.6161H42.9716V93.6914H40.0881V104.601H43.1136V98.2937ZM56.5494 104.778C58.3107 104.778 59.2269 103.762 59.6459 102.853H59.7738V104.601H62.7567V90.0551H59.7383V95.5238H59.6459C59.2411 94.636 58.3675 93.5494 56.5423 93.5494C54.1488 93.5494 52.1246 95.4102 52.1246 99.1602C52.1246 102.811 54.0636 104.778 56.5494 104.778ZM57.5082 102.37C56.0238 102.37 55.2141 101.049 55.2141 99.146C55.2141 97.2568 56.0096 95.9571 57.5082 95.9571C58.9783 95.9571 59.8022 97.2 59.8022 99.146C59.8022 101.092 58.9641 102.37 57.5082 102.37ZM72.8988 90.0551H69.8732V104.601H72.8988V90.0551ZM78.4332 104.806C80.0454 104.806 81.0895 104.103 81.6222 103.088H81.7074V104.601H84.5767V97.2426C84.5767 94.6431 82.375 93.5494 79.946 93.5494C77.3324 93.5494 75.6136 94.7994 75.1946 96.788L77.9929 97.0153C78.1989 96.2909 78.8452 95.7582 79.9318 95.7582C80.9616 95.7582 81.5511 96.2767 81.5511 97.1715V97.2142C81.5511 97.9173 80.8054 98.0096 78.9091 98.1943C76.75 98.3931 74.8111 99.1176 74.8111 101.554C74.8111 103.713 76.3523 104.806 78.4332 104.806ZM79.2997 102.718C78.3693 102.718 77.7017 102.285 77.7017 101.454C77.7017 100.602 78.4048 100.183 79.4702 100.034C80.1307 99.9414 81.2102 99.7852 81.5724 99.5437V100.701C81.5724 101.845 80.6278 102.718 79.2997 102.718ZM93.9197 99.9556C93.9268 101.419 92.9254 102.186 91.8388 102.186C90.6953 102.186 89.9567 101.383 89.9496 100.098V93.6914H86.924V100.637C86.9311 103.187 88.4226 104.743 90.6172 104.743C92.2578 104.743 93.4368 103.897 93.9268 102.619H94.0405V104.601H96.9453V93.6914H93.9197V99.9556ZM102.391 98.2937C102.398 96.8875 103.236 96.0636 104.458 96.0636C105.672 96.0636 106.404 96.859 106.397 98.1943V104.601H109.422V97.6545C109.422 95.1119 107.931 93.5494 105.658 93.5494C104.039 93.5494 102.867 94.3448 102.377 95.6161H102.249V93.6914H99.3654V104.601H102.391V98.2937ZM116.736 104.814C119.641 104.814 121.466 103.109 121.608 100.602H118.753C118.575 101.767 117.808 102.42 116.771 102.42C115.358 102.42 114.442 101.234 114.442 99.146C114.442 97.0863 115.365 95.9073 116.771 95.9073C117.879 95.9073 118.589 96.6389 118.753 97.7255H121.608C121.48 95.2042 119.57 93.5494 116.722 93.5494C113.412 93.5494 111.366 95.8434 111.366 99.1886C111.366 102.505 113.376 104.814 116.736 104.814ZM126.571 98.2937C126.578 96.8875 127.437 96.0636 128.673 96.0636C129.902 96.0636 130.626 96.8519 130.619 98.1943V104.601H133.645V97.6545C133.652 95.0977 132.146 93.5494 129.873 93.5494C128.218 93.5494 127.11 94.3306 126.613 95.6161H126.485V90.0551H123.545V104.601H126.571V98.2937ZM30.3544 132.691C32.6058 132.691 33.799 131.541 34.4169 129.78L38.657 117.706L35.4538 117.691L33.174 125.703H33.0604L30.8018 117.691H27.62L31.5334 128.913L31.3558 129.375C30.9581 130.397 30.1981 130.447 29.1328 130.12L28.451 132.379C28.8842 132.564 29.5874 132.691 30.3544 132.691ZM44.7631 128.814C48.0728 128.814 50.1325 126.548 50.1325 123.189C50.1325 119.808 48.0728 117.549 44.7631 117.549C41.4535 117.549 39.3938 119.808 39.3938 123.189C39.3938 126.548 41.4535 128.814 44.7631 128.814ZM44.7773 126.47C43.2503 126.47 42.4691 125.071 42.4691 123.167C42.4691 121.264 43.2503 119.858 44.7773 119.858C46.2759 119.858 47.0572 121.264 47.0572 123.167C47.0572 125.071 46.2759 126.47 44.7773 126.47ZM59.0955 123.956C59.1026 125.419 58.1012 126.186 57.0146 126.186C55.8711 126.186 55.1325 125.383 55.1253 124.098V117.691H52.0998V124.637C52.1069 127.187 53.5984 128.743 55.793 128.743C57.4336 128.743 58.6126 127.897 59.1026 126.619H59.2163V128.601H62.1211V117.691H59.0955V123.956ZM64.5412 128.601H67.5668V122.429C67.5668 121.086 68.5469 120.163 69.8821 120.163C70.3011 120.163 70.8764 120.234 71.1605 120.326V117.642C70.8906 117.578 70.5142 117.535 70.2088 117.535C68.9872 117.535 67.9858 118.245 67.5881 119.595H67.4744V117.691H64.5412V128.601ZM83.2202 117.691H81.054V116.96C81.054 116.221 81.3523 115.788 82.2401 115.788C82.6023 115.788 82.9716 115.866 83.2131 115.944L83.7457 113.672C83.3693 113.558 82.5383 113.373 81.6079 113.373C79.5554 113.373 78.0284 114.531 78.0284 116.903V117.691H76.4872V119.964H78.0284V128.601H81.054V119.964H83.2202V117.691ZM85.0685 128.601H88.0941V117.691H85.0685V128.601ZM86.5884 116.285C87.4904 116.285 88.229 115.596 88.229 114.751C88.229 113.913 87.4904 113.224 86.5884 113.224C85.6935 113.224 84.9549 113.913 84.9549 114.751C84.9549 115.596 85.6935 116.285 86.5884 116.285ZM90.5178 128.601H93.5433V122.429C93.5433 121.086 94.5234 120.163 95.8587 120.163C96.2777 120.163 96.853 120.234 97.1371 120.326V117.642C96.8672 117.578 96.4908 117.535 96.1854 117.535C94.9638 117.535 93.9624 118.245 93.5646 119.595H93.451V117.691H90.5178V128.601ZM107.778 120.802C107.508 118.792 105.889 117.549 103.133 117.549C100.342 117.549 98.5025 118.842 98.5096 120.944C98.5025 122.578 99.5323 123.636 101.663 124.062L103.552 124.439C104.504 124.63 104.937 124.978 104.951 125.525C104.937 126.172 104.234 126.633 103.176 126.633C102.096 126.633 101.379 126.172 101.194 125.284L98.2184 125.44C98.5025 127.528 100.278 128.814 103.169 128.814C105.995 128.814 108.02 127.372 108.027 125.22C108.02 123.643 106.99 122.699 104.873 122.265L102.899 121.868C101.883 121.647 101.507 121.299 101.514 120.774C101.507 120.12 102.245 119.694 103.183 119.694C104.234 119.694 104.859 120.27 105.008 120.973L107.778 120.802ZM115.734 117.691H113.682V115.078H110.656V117.691H109.165V119.964H110.656V125.646C110.642 127.784 112.098 128.842 114.293 128.75C115.074 128.721 115.628 128.565 115.933 128.466L115.457 126.214C115.308 126.243 114.989 126.314 114.705 126.314C114.101 126.314 113.682 126.086 113.682 125.248V119.964H115.734V117.691ZM127.547 128.601C131.979 128.601 134.664 125.859 134.664 121.314C134.664 116.782 131.979 114.055 127.59 114.055H122.391V128.601H127.547ZM125.466 125.966V116.69H127.426C130.154 116.69 131.596 118.082 131.596 121.314C131.596 124.559 130.154 125.966 127.419 125.966H125.466ZM138.629 128.601L139.708 125.284H144.957L146.036 128.601H149.332L144.317 114.055H140.354L135.333 128.601H138.629ZM140.489 122.883L142.279 117.379H142.393L144.183 122.883H140.489ZM163.765 121.328C163.765 116.569 160.811 113.856 156.954 113.856C153.076 113.856 150.143 116.569 150.143 121.328C150.143 126.065 153.076 128.799 156.954 128.799C160.811 128.799 163.765 126.086 163.765 121.328ZM160.647 121.328C160.647 124.41 159.184 126.079 156.954 126.079C154.717 126.079 153.261 124.41 153.261 121.328C153.261 118.245 154.717 116.576 156.954 116.576C159.184 116.576 160.647 118.245 160.647 121.328Z" fill="white"/>
<g filter="url(#filter0_d)">
<path opacity="0.16" d="M247.291 101.758C244.883 102.217 243.71 104.961 240.581 104.869C237.424 104.777 237.034 101.94 233.987 101.649C230.171 101.286 229.259 105.59 223.737 106.604C220.368 107.223 219.487 105.844 216.444 106.504C212.612 107.334 209.995 110.39 208.347 112.945C221.339 125.936 234.329 138.928 247.321 151.919C253.819 147.901 255.448 144.345 255.607 141.714C255.833 137.946 253.039 136.172 254.07 132.38C255.071 128.697 258.17 128.677 258.663 124.938C258.997 122.404 257.735 121.2 258.503 118.412C258.965 116.736 259.878 115.512 260.574 114.744C254.09 103.592 249.976 101.246 247.291 101.758Z" fill="#4F6BFD"/>
<path d="M286.107 120.255L273.882 107.908L280.214 103.453L284.237 100.624L295.478 92.7173L292.56 103.28L291.721 106.315L288.007 119.759C287.775 120.599 286.721 120.875 286.107 120.255Z" fill="#4F6BFD"/>
<path opacity="0.05" d="M286.107 120.255L273.882 107.908L280.215 103.453C281.118 104.232 282.211 104.987 283.59 105.567C286.329 106.718 289.17 106.746 291.721 106.315L289.471 114.459L288.007 119.759C287.775 120.599 286.721 120.875 286.107 120.255Z" fill="#020202"/>
<path opacity="0.05" d="M286.107 120.255L278.032 112.1C278.447 112.308 278.878 112.506 279.325 112.694C282.697 114.111 286.157 114.569 289.471 114.459L288.007 119.759C287.775 120.599 286.721 120.875 286.107 120.255Z" fill="#020202"/>
<path opacity="0.08" d="M292.559 103.28C289.883 103.132 286.864 102.509 284.237 100.624L295.478 92.7173L292.559 103.28Z" fill="white"/>
<path d="M243.02 76.7381L255.245 89.0857L259.762 82.7973L262.632 78.8029L270.649 67.6409L260.058 70.4546L257.015 71.2629L243.534 74.8438C242.692 75.0677 242.406 76.1188 243.02 76.7381Z" fill="#4F6BFD"/>
<path opacity="0.05" d="M243.019 76.7381L255.245 89.0856L259.762 82.7973C258.992 81.8859 258.248 80.7857 257.682 79.4011C256.558 76.6512 256.558 73.81 257.015 71.2629L248.849 73.4321L243.535 74.8437C242.692 75.0676 242.406 76.1188 243.019 76.7381Z" fill="#020202"/>
<path opacity="0.05" d="M243.02 76.7381L251.094 84.8935C250.891 84.477 250.697 84.0443 250.513 83.5949C249.13 80.2091 248.706 76.7451 248.848 73.4323L243.534 74.8438C242.692 75.0676 242.406 76.1188 243.02 76.7381Z" fill="#020202"/>
<path opacity="0.08" d="M260.058 70.4547C260.18 73.1326 260.773 76.1571 262.632 78.8028L270.649 67.6409L260.058 70.4547Z" fill="white"/>
<path d="M263.4 113.851L260.924 116.303C260.605 116.619 260.09 116.616 259.774 116.297L245.817 102.201C245.657 102.039 245.579 101.828 245.582 101.617L245.582 101.617C245.584 101.411 245.665 101.207 245.823 101.051L248.299 98.5994C248.345 98.5537 248.395 98.5149 248.448 98.4825C248.763 98.2906 249.178 98.3322 249.449 98.6051L263.406 112.702C263.676 112.974 263.713 113.391 263.519 113.703C263.518 113.705 263.517 113.706 263.516 113.707C263.484 113.758 263.445 113.807 263.4 113.851Z" fill="#4F6BFD"/>
<path d="M300.24 89.8818L266.213 114.955C265.73 115.311 265.059 115.259 264.637 114.832L247.809 97.8373C247.387 97.411 247.341 96.7394 247.702 96.2599L272.455 63.3655C275.566 59.2309 279.179 55.5193 283.203 52.3221C283.259 52.2784 283.314 52.2343 283.37 52.1906C285.747 50.3148 288.267 48.6184 290.911 47.1195C291.087 47.0197 291.263 46.9206 291.44 46.8229C292.354 46.317 293.282 45.835 294.223 45.3771C302.249 41.4738 311.121 39.3373 320.244 39.2666C320.491 39.2648 320.739 39.2641 320.986 39.2655L320.986 39.2654C323.191 39.2747 324.942 41.1222 324.833 43.3246L324.786 44.2662C324.775 44.4984 324.762 44.7303 324.748 44.9622C324.582 47.693 324.231 50.3932 323.705 53.0462C322.969 56.7532 321.89 60.3561 320.492 63.8152C319.33 66.6925 317.949 69.4699 316.364 72.1247C316.15 72.4846 315.931 72.8424 315.709 73.1976C314.18 75.6423 312.476 77.9774 310.61 80.1845C307.566 83.7846 304.091 87.0442 300.24 89.8818Z" fill="#FF4545"/>
<path d="M300.24 89.8817L266.16 114.994C265.707 115.327 265.078 115.278 264.683 114.879L247.763 97.7905C247.367 97.3909 247.325 96.7614 247.663 96.3122L272.455 63.3651C275.609 59.1737 279.279 55.417 283.37 52.1901C285.747 50.3143 288.267 48.6179 290.911 47.119C291.087 47.0192 291.263 46.9201 291.44 46.8224C296.482 49.7134 301.221 53.3243 305.509 57.6545C309.879 62.0685 313.498 66.9446 316.365 72.1237C316.15 72.4835 315.932 72.8413 315.709 73.1965C314.181 75.6413 312.477 77.9763 310.611 80.1834C307.566 83.7846 304.091 87.0441 300.24 89.8817Z" fill="white"/>
<path d="M279.769 82.5413C284.667 87.4884 292.649 87.528 297.596 82.6296C302.543 77.7313 302.582 69.75 297.684 64.8029C292.786 59.8557 284.805 59.8162 279.857 64.7145C274.91 69.6128 274.871 77.5941 279.769 82.5413Z" fill="#4F6BFD"/>
<path d="M293.92 78.9176C293.835 79.002 293.748 79.0844 293.659 79.1636C290.855 81.6872 286.588 81.6813 283.79 79.1607C283.685 79.066 283.582 78.9677 283.481 78.8658C282.416 77.7893 281.749 76.4674 281.481 75.0838C281.397 74.6536 281.352 74.2172 281.346 73.7802C281.34 73.3869 281.366 72.9933 281.423 72.6033C281.507 72.0251 281.659 71.4551 281.881 70.9065C282.169 70.191 282.575 69.512 283.096 68.8982C283.234 68.7363 283.379 68.5789 283.533 68.4267C286.43 65.5585 291.104 65.5817 293.972 68.4785C294.697 69.2103 295.236 70.0554 295.592 70.9562C295.835 71.5689 295.991 72.2074 296.063 72.8534C296.12 73.3725 296.123 73.8964 296.071 74.4158C296.042 74.7058 295.995 74.994 295.932 75.2794C295.828 75.7474 295.678 76.2072 295.482 76.6516C295.119 77.4754 294.599 78.2461 293.92 78.9176Z" fill="white"/>
<path opacity="0.04" d="M283.096 68.8983C283.234 68.7365 283.379 68.579 283.533 68.4269C286.43 65.5587 291.104 65.5818 293.972 68.4786C294.696 69.2104 295.236 70.0556 295.592 70.9563L283.096 68.8983Z" fill="#4F6BFD"/>
<path opacity="0.04" d="M296.071 74.4162C292.929 74.0336 284.314 72.9818 281.422 72.6034C281.506 72.0253 281.659 71.4553 281.881 70.9067L296.063 72.8537C296.121 73.3725 296.123 73.8967 296.071 74.4162Z" fill="#4F6BFD"/>
<path opacity="0.04" d="M295.483 76.6519L281.481 75.084C281.397 74.6537 281.352 74.2173 281.346 73.7804C284.851 74.1511 293.017 75.01 295.932 75.2796C295.828 75.7477 295.678 76.2074 295.483 76.6519Z" fill="#4F6BFD"/>
<path opacity="0.04" d="M293.659 79.1636C290.855 81.6872 286.588 81.6813 283.79 79.1607L293.659 79.1636Z" fill="#4F6BFD"/>
<path d="M299.075 79.9672L299.074 79.9612C299.081 79.9611 299.075 79.9672 299.075 79.9672Z" fill="#4F6BFD"/>
<path opacity="0.05" d="M301.368 89.0296C300.996 89.3177 300.62 89.6018 300.24 89.8818L266.213 114.955C265.73 115.311 265.059 115.259 264.637 114.832L247.809 97.8373C247.387 97.411 247.341 96.7394 247.702 96.2599L263.09 75.8113L272.455 63.3656C275.566 59.231 279.18 55.5194 283.204 52.3222C284.511 57.7499 284.653 65.4415 290.615 69.2855C297.871 73.9631 309.306 70.0801 320.493 63.815C319.331 66.6923 317.95 69.4697 316.365 72.1246C316.15 72.4844 315.932 72.8422 315.709 73.1974C314.181 75.6422 312.477 77.9772 310.611 80.1843C307.867 83.4293 304.772 86.3978 301.368 89.0296Z" fill="#020202"/>
<path opacity="0.05" d="M301.368 89.0297C300.996 89.3178 300.62 89.6019 300.24 89.8818L277.233 106.835L266.213 114.955C265.73 115.311 265.059 115.259 264.637 114.832L247.809 97.8373C247.387 97.411 247.342 96.7394 247.703 96.2599L248.969 94.5771L263.09 75.8113C264.505 81.1472 266.843 86.2671 271.948 89.5579C279.512 94.4344 290.022 93.2769 301.368 89.0297Z" fill="#020202"/>
<path opacity="0.05" d="M277.233 106.835L266.213 114.955C265.73 115.311 265.059 115.259 264.637 114.832L247.809 97.8371C247.387 97.4109 247.342 96.7392 247.702 96.2597L248.969 94.5769C250.461 98.5368 252.75 102.149 256.675 104.679C262.221 108.255 269.351 108.586 277.233 106.835Z" fill="#020202"/>
<path opacity="0.08" d="M288.663 54.0379C287.2 57.845 289.756 63.1332 293.364 65.4842C302.004 71.1133 318.805 61.2884 318.632 54.8891C318.541 51.5404 313.794 48.7837 311.038 47.7848C307.588 46.534 304.731 47.1213 301.06 47.8758C295.461 49.0271 290.171 50.1143 288.663 54.0379Z" fill="white"/>
<path opacity="0.08" d="M263.534 113.719L263.516 113.706L245.582 101.617L245.582 101.617C245.584 101.411 245.665 101.207 245.823 101.051L248.299 98.5993C248.345 98.5535 248.395 98.5147 248.448 98.4823L263.534 113.718L263.534 113.719Z" fill="white"/>
</g>
<g filter="url(#filter1_d)">
<path d="M233.291 113.808L233.053 121.238L227.428 121.932L225.117 114.534L233.291 113.808Z" fill="#FCC0BF"/>
<path d="M221.83 99.9881C222.381 103.903 223.331 108.427 224.703 113.665C224.992 114.773 225.3 115.91 225.628 117.082C225.628 117.082 231.544 118.576 233.378 115.747C233.378 115.747 233.345 114.671 233.296 112.809C233.19 108.935 233.011 101.657 232.903 93.6196C232.888 92.3933 239.539 91.49 244.607 91.1201C252.552 90.5388 257.791 82.4131 254.839 75.0145C254.493 74.151 254.095 73.4873 253.634 73.132C248.426 73.5297 243.772 73.8707 239.726 74.4387C225.878 76.3869 219.164 81.0316 221.83 99.9881Z" fill="#FF9736"/>
<path d="M222.42 125.545L233.02 124.061C233.463 123.999 233.775 123.586 233.713 123.143L233.448 121.251C233.323 120.358 233.223 119.644 232.668 119.722L232.58 119.776C230.956 120.768 228.974 120.984 227.174 120.364C225.817 120.655 225.722 121.195 224.671 121.903C223.858 122.452 223.191 123 222.749 123.361C222.363 123.675 222.138 124.144 222.131 124.638C222.13 124.668 222.13 124.701 222.132 124.734C222.179 125.774 222.42 125.545 222.42 125.545Z" fill="#000A40"/>
<path d="M222.42 125.545L224.423 125.265C224.99 124.182 224.817 122.682 224.67 121.903C223.857 122.452 223.191 123 222.748 123.361C222.362 123.675 222.138 124.144 222.131 124.638C222.13 124.668 222.13 124.701 222.132 124.734C222.179 125.774 222.42 125.545 222.42 125.545Z" fill="white"/>
<path d="M222.42 125.545L233.02 124.061C233.463 123.999 233.775 123.586 233.713 123.142L233.695 123.018L222.131 124.638C222.13 124.668 222.13 124.701 222.132 124.734C222.179 125.774 222.42 125.545 222.42 125.545Z" fill="#2B1A82"/>
<path d="M227.282 122.093C227.306 122.089 227.33 122.082 227.353 122.072C227.478 122.013 227.533 121.865 227.475 121.739L226.935 120.576C226.877 120.451 226.728 120.396 226.603 120.455C226.477 120.513 226.423 120.662 226.481 120.787L227.02 121.95C227.068 122.052 227.176 122.107 227.282 122.093Z" fill="white"/>
<path d="M226.232 122.476C226.253 122.473 226.275 122.467 226.295 122.458C226.423 122.405 226.482 122.258 226.429 122.13L225.952 121.001C225.898 120.874 225.751 120.815 225.624 120.868C225.496 120.922 225.437 121.069 225.49 121.196L225.967 122.325C226.012 122.432 226.123 122.491 226.232 122.476Z" fill="white"/>
<path d="M233.171 74.8588L232.629 75.9809L234.486 77.4895L236.329 76.1744L233.171 74.8588Z" fill="#FF9736"/>
<path d="M263.961 116.319C263.589 124.819 253.519 121.397 259.936 135.304C261.182 138.446 261.275 138.77 257.162 142.741C254.083 145.714 250.693 150.344 249.803 155.683C249.503 157.475 249.485 159.348 249.857 161.263L242.742 163.294L243.298 157.889C243.298 157.889 243.301 157.839 243.31 157.746C243.384 156.72 243.94 150.333 246.397 145.463C249.078 140.151 251.159 136.41 248.111 133.083C245.063 129.755 232.594 115.477 246.364 104.902C254.649 98.541 264.334 107.819 263.961 116.319Z" fill="#F2F2F2"/>
<path d="M249.803 155.683C249.503 157.475 249.485 159.348 249.857 161.264L242.742 163.294L243.298 157.889C243.298 157.889 243.301 157.839 243.31 157.746C245.373 157.01 247.804 156.215 249.803 155.683Z" fill="#000A40"/>
<path d="M226.778 101.224C219.338 108.243 207.143 107.176 194.903 99.8271C192.501 98.7637 187.142 99.5937 180.392 115.16L181.776 120.011L172.721 122.595L174.285 115.059L174.34 114.788C174.34 114.788 181.229 98.4829 190.054 93.8663C198.879 89.2494 201.233 93.8238 215.188 83.896C225.954 78.7257 234.218 94.2042 226.778 101.224Z" fill="#F2F2F2"/>
<path d="M295.188 121.573L292.648 118.8C292.648 118.8 290.033 132.725 295.253 145.161C295.275 145.215 295.297 145.265 295.319 145.318C295.319 145.318 281.821 144.112 278.386 130.026C277.401 125.988 277.82 121.744 279.35 117.877C281.188 113.226 282.807 104.842 274.361 98.8373L274.332 98.7965L271.36 94.4476C281.57 94.6819 294.408 107.806 295.188 121.573Z" fill="#000A40"/>
<path opacity="0.1" d="M295.319 145.318C295.319 145.318 281.821 144.112 278.386 130.026C277.401 125.987 277.821 121.744 279.35 117.877C281.188 113.225 282.807 104.842 274.361 98.8371L274.332 98.7963C287.538 104.125 286.25 119.052 286.25 119.052L283.987 119.698C283.987 119.698 281.628 127.366 286.292 132.68L283.659 132.032C283.659 132.032 288.166 142.714 295.254 145.162C295.276 145.215 295.297 145.265 295.319 145.318Z" fill="#020202"/>
<path d="M180.47 115.431L181.776 120.011L172.721 122.595L174.285 115.059L180.47 115.431Z" fill="#000A40"/>
<path d="M204.618 43.5032L202.525 45.1648L200.138 47.0589C200.138 47.0589 200.076 46.9649 199.96 46.7916C199.621 46.28 198.832 45.0788 197.873 43.5766C197.459 42.9255 197.015 42.2199 196.561 41.4897C196.56 41.4884 196.559 41.4864 196.558 41.4848C196.355 41.1579 196.151 40.8255 195.948 40.4911C195.935 40.4702 195.922 40.4487 195.909 40.4274C195.433 39.6444 194.96 38.8497 194.516 38.0807C193.946 37.0934 193.426 36.1471 193.01 35.3183C192.824 34.9465 192.658 34.5978 192.519 34.2791C192.082 33.28 191.899 32.5768 192.126 32.3778C192.129 32.3756 192.131 32.3737 192.134 32.3718C192.337 32.2122 192.829 32.428 193.509 32.8977C193.511 32.899 193.513 32.9004 193.515 32.9018C194.02 33.2497 194.626 33.7348 195.293 34.3103C195.294 34.3114 195.296 34.313 195.297 34.3144C196.016 34.9327 196.802 35.6535 197.608 36.4175C197.609 36.4183 197.61 36.4189 197.611 36.4197C198.091 36.8764 198.577 37.3436 199.059 37.8169C199.852 38.5936 200.629 39.3753 201.34 40.0983C203.211 41.9999 204.618 43.5032 204.618 43.5032Z" fill="#FF9736"/>
<path d="M201.338 40.1019L199.95 46.7935C199.611 46.2816 198.824 45.0793 197.867 43.5757L199.06 37.8177C199.852 38.5953 200.628 39.3778 201.338 40.1019Z" fill="#13A173"/>
<path opacity="0.1" d="M204.618 43.5032L202.525 45.1648C200.96 43.7124 199.048 40.995 197.171 38.5327C197.009 38.3191 196.846 38.1077 196.684 37.8993C196.036 37.0636 195.466 36.4125 194.966 35.9079C194.225 35.1584 193.639 34.7315 193.182 34.5029C192.926 34.374 192.709 34.3072 192.529 34.2805C192.525 34.2802 192.522 34.2794 192.518 34.2791C192.081 33.28 191.899 32.5768 192.126 32.3778C192.128 32.3756 192.13 32.3737 192.133 32.3717C192.136 32.3687 192.139 32.3662 192.142 32.3635C192.345 32.2042 192.837 32.4205 193.517 32.891L193.515 32.9018C194.019 33.2496 194.625 33.7348 195.292 34.3103C195.294 34.3114 195.295 34.313 195.297 34.3144L195.299 34.3061C196.018 34.9263 196.804 35.6493 197.611 36.4159L197.61 36.4197C198.09 36.8764 198.577 37.3436 199.058 37.8169C199.851 38.5936 200.628 39.3753 201.34 40.0983C203.211 41.9999 204.618 43.5032 204.618 43.5032Z" fill="#020202"/>
<path d="M197.611 36.4158L197.61 36.4197L197.171 38.533L196.558 41.485L196.557 41.4872C196.355 41.1595 196.151 40.8268 195.947 40.4911C195.934 40.4701 195.921 40.4486 195.909 40.4274C195.433 39.6424 194.96 38.8458 194.517 38.0754L194.966 35.9078L195.297 34.3141L195.299 34.3058C196.017 34.926 196.804 35.649 197.611 36.4158Z" fill="#FF748F"/>
<path d="M193.517 32.8908L193.515 32.9015L193.182 34.5027L193.015 35.3106C192.831 34.942 192.667 34.5964 192.529 34.2805C192.096 33.2891 191.912 32.5876 192.126 32.3775C192.128 32.3753 192.13 32.3734 192.133 32.3715C192.136 32.3685 192.139 32.366 192.142 32.3632C192.345 32.2042 192.837 32.4203 193.517 32.8908Z" fill="#13A173"/>
<path d="M277.938 109.533C277.461 112.603 276.396 115.149 274.817 117.054C271.505 121.06 265.929 122.246 258.763 119.551C248.186 115.575 240.241 112.246 229.985 113.074C219.729 113.902 211.508 107.155 207.677 99.8544C204.673 94.1328 200.493 83.9101 201.32 74.3326C201.549 71.6899 202.155 69.0964 203.276 66.6609C205.079 61.9495 205.079 61.9495 205.079 61.9495C205.079 61.9495 205.05 61.9578 204.992 61.9746C204.276 62.1753 199.351 63.5319 196.486 63.702C195.096 63.7841 193.509 64.912 191.826 65.707C191.441 65.8902 191.047 66.0551 190.654 66.1849C190.478 66.242 190.303 66.2918 190.127 66.3351C188.571 66.716 186.964 66.4649 185.375 64.5995C182.621 61.3563 185.054 59.7946 191.153 54.2072C192.932 50.2684 197.501 44.9426 204.258 43.4941C204.655 42.5832 205.535 40.9856 207.091 40.1008C209.351 38.8158 212.181 39.5294 212.181 39.5294C212.181 39.5294 211.881 40.5247 211.16 41.6014C210.784 42.1595 210.292 42.7406 209.672 43.2149C210.277 43.2764 210.898 43.3687 211.53 43.4964C220.519 45.3133 223.832 61.4352 229.604 70.3889C230.742 72.1557 232.474 75.0926 233.867 76.1361C241.366 81.7535 245.165 83.32 255.057 83.9272H255.058C256.315 84.0044 257.671 84.0664 259.144 84.1188C259.57 84.1336 259.989 84.1648 260.401 84.2111C272.677 85.5824 279.371 100.327 277.938 109.533Z" fill="white"/>
<path opacity="0.25" d="M260.401 84.2177C258.635 86.4597 253.276 92.7679 247.367 94.85C240.132 97.3991 249.054 109.058 246.093 112.919C246.093 112.919 232.934 96.0121 237.508 92.3382C242.082 88.6645 248.867 86.9399 251.453 86.1152C254.04 85.2905 255.057 83.9338 255.057 83.9338H255.058C256.315 84.011 257.671 84.073 259.144 84.1254C259.569 84.1405 259.988 84.1717 260.401 84.2177Z" fill="#020202"/>
<path d="M231.101 70.9862C230.575 70.8495 230.076 70.6422 229.605 70.3886C228.509 68.6896 227.502 66.7323 226.529 64.664C222.37 55.8315 218.813 44.9683 211.53 43.4964C210.898 43.3685 210.277 43.2764 209.672 43.2149C210.017 42.9512 210.323 42.654 210.59 42.3464C210.804 42.1014 210.993 41.8494 211.16 41.6017C213.05 40.7125 215.164 40.3015 217.249 40.4269C216.786 40.909 216.314 41.7083 216.805 42.1664C216.976 42.3238 217.215 42.3778 217.442 42.425C219.665 42.8993 221.966 43.6557 223.465 45.3682C223.172 45.6025 222.772 45.699 222.402 45.6262C224.092 48.4002 226.063 51.003 228.273 53.3834C227.53 53.2665 226.771 53.2665 226.027 53.3806C228.604 56.0239 228.779 60.1182 230.237 63.511C229.133 63.2698 228.101 62.7183 227.286 61.936C228.157 65.1182 230.936 67.6893 231.101 70.9862Z" fill="#FF748F"/>
<path opacity="0.1" d="M227.613 65.0098C227.242 64.9288 226.878 64.8128 226.529 64.6639C222.37 55.8315 218.813 44.9682 211.53 43.4963C210.898 43.3684 210.277 43.2764 209.672 43.2149C210.017 42.9511 210.323 42.654 210.59 42.3464C211.901 41.99 213.269 41.8447 214.625 41.926C214.162 42.4081 213.69 43.2075 214.181 43.6656C214.352 43.8229 214.591 43.877 214.818 43.9241C217.041 44.3982 219.342 45.1548 220.841 46.8673C220.547 47.1016 220.148 47.1981 219.778 47.1253C221.468 49.8993 223.439 52.5021 225.649 54.8825C224.906 54.7656 224.147 54.7656 223.403 54.8797C225.98 57.5228 226.155 61.6171 227.613 65.0098Z" fill="#020202"/>
<path opacity="0.11" d="M274.817 117.054C271.505 121.06 265.929 122.245 258.763 119.551C248.186 115.575 240.241 112.246 229.985 113.074C219.729 113.902 211.509 107.155 207.677 99.8542C204.673 94.1325 200.493 83.9098 201.321 74.3321C202.689 82.143 207.727 88.998 207.727 88.998C207.727 88.998 211.059 88.8864 214.984 85.2483C218.909 81.6102 229.733 100.461 229.733 100.461C229.733 100.461 225.876 107.252 221.164 107.897C221.164 107.897 225.09 110.623 239.965 108.827C251.574 107.424 264.021 122.398 274.817 117.054Z" fill="#020202"/>
<path d="M231.407 98.0777C226.273 106.925 214.279 109.375 200.453 105.815C197.848 105.479 192.947 107.801 190.909 124.644L193.617 128.9L185.672 133.956L185.026 126.287L185.002 126.011C185.002 126.011 186.963 108.419 194.108 101.481C201.253 94.5427 204.813 98.2571 215.363 84.767C224.211 76.7458 236.54 89.2306 231.407 98.0777Z" fill="white"/>
<path d="M191.061 124.883L193.617 128.9L185.672 133.956L185.026 126.287L191.061 124.883Z" fill="#000A40"/>
<path d="M275.881 112.743C275.509 121.243 265.439 117.821 271.856 131.728C273.102 134.87 273.194 135.193 269.082 139.165C266.003 142.138 262.613 146.768 261.723 152.107C261.423 153.899 261.405 155.772 261.776 157.687L254.661 159.717L255.218 154.313C255.218 154.313 255.221 154.263 255.229 154.17C255.304 153.144 255.859 146.757 258.317 141.887C260.998 136.575 263.078 132.834 260.03 129.507C256.982 126.18 244.514 111.901 258.284 101.326C266.569 94.9647 276.254 104.243 275.881 112.743Z" fill="white"/>
<path d="M261.723 152.107C261.423 153.899 261.405 155.772 261.776 157.687L254.661 159.717L255.218 154.313C255.218 154.313 255.221 154.263 255.229 154.17C257.293 153.434 259.724 152.639 261.723 152.107Z" fill="#000A40"/>
<path d="M190.631 66.1877C190.638 66.1858 190.648 66.1864 190.655 66.1844C190.478 66.2418 190.303 66.2915 190.127 66.3351C190.269 66.27 190.437 66.2187 190.631 66.1877Z" fill="#7AC0FC"/>
<path opacity="0.11" d="M207.091 54.9051C208.29 59.1093 205.194 61.7416 205.194 61.7416C205.194 61.7416 205.123 61.8249 204.991 61.9743C204.276 62.1749 199.35 63.5316 196.486 63.702C195.096 63.7838 193.508 64.9117 191.825 65.7066C192.933 64.9045 193.197 63.4161 194.707 62.9853C196.648 62.4316 196.141 59.4285 201.222 60.0771C206.303 60.7257 207.091 54.9051 207.091 54.9051Z" fill="#020202"/>
<path d="M247.528 114.202L250.035 121.407L244.902 124.143L239.965 117.906L247.528 114.202Z" fill="#FCC0BF"/>
<path d="M231.462 105.179C233.431 108.727 236.006 112.713 239.248 117.225C239.933 118.18 240.647 119.157 241.392 120.158C241.392 120.158 247.61 119.413 248.326 116.027C248.326 116.027 247.898 115.009 247.166 113.242C245.639 109.57 242.789 102.663 239.727 95.0025C239.262 93.8329 245.301 90.5196 250.02 88.3001C257.418 84.8192 259.447 75.1055 253.895 69.1039C253.246 68.404 252.62 67.9148 252.048 67.7436C247.205 70.0413 242.871 72.0813 239.204 74.1146C226.653 81.0783 221.93 87.9991 231.462 105.179Z" fill="#FF9736"/>
<path d="M241.433 129.448L251.042 124.125C251.444 123.902 251.591 123.391 251.368 122.99L250.418 121.275C249.97 120.465 249.611 119.818 249.108 120.097L249.044 120.181C247.853 121.729 246.033 122.665 244.082 122.734C242.888 123.513 242.995 124.064 242.249 125.13C241.672 125.955 241.235 126.726 240.944 127.234C240.69 127.677 240.647 128.209 240.822 128.685C240.833 128.714 240.844 128.746 240.858 128.776C241.286 129.756 241.433 129.448 241.433 129.448Z" fill="#50E837"/>
<path d="M241.433 129.448L243.249 128.442C243.393 127.196 242.676 125.822 242.249 125.13C241.672 125.955 241.235 126.726 240.944 127.234C240.69 127.677 240.647 128.209 240.822 128.685C240.833 128.714 240.844 128.746 240.858 128.776C241.286 129.756 241.433 129.448 241.433 129.448Z" fill="white"/>
<path d="M241.433 129.448L251.042 124.125C251.445 123.902 251.591 123.392 251.368 122.99L251.306 122.877L240.823 128.685C240.833 128.714 240.845 128.746 240.859 128.776C241.286 129.756 241.433 129.448 241.433 129.448Z" fill="#2B1A82"/>
<path d="M244.821 124.351C244.843 124.338 244.863 124.323 244.881 124.304C244.98 124.202 244.977 124.04 244.875 123.941L243.93 123.025C243.829 122.927 243.665 122.929 243.567 123.031C243.468 123.133 243.471 123.295 243.573 123.394L244.518 124.31C244.601 124.391 244.724 124.404 244.821 124.351Z" fill="white"/>
<path d="M243.956 125.104C243.975 125.093 243.993 125.08 244.01 125.064C244.112 124.966 244.115 124.803 244.017 124.701L243.144 123.795C243.046 123.692 242.883 123.69 242.781 123.788C242.679 123.886 242.676 124.049 242.774 124.151L243.647 125.057C243.729 125.143 243.857 125.159 243.956 125.104Z" fill="white"/>
<path d="M258.582 47.1568C258.582 47.1568 258.713 47.2094 259.01 47.2491C260.139 47.4001 261.483 46.6846 262.404 46.0145C266.498 43.0335 268.814 36.4977 269.375 34.8775C269.375 34.8775 271.56 35.1149 271.625 35.2951C271.625 35.2951 273.016 50.017 263.969 52.7455C260.982 53.6466 257.422 53.7182 257.422 53.7182L258.582 47.1568Z" fill="#FCC0BF"/>
<path d="M262.741 53.3839C262.741 53.3839 262.717 53.1888 262.663 52.8572C262.544 52.151 262.276 50.8263 261.765 49.4603C261.397 48.4812 260.907 47.4784 260.256 46.6692C260.215 46.6154 260.171 46.5617 260.127 46.5112C260.127 46.5112 259.668 46.4693 258.94 46.4327C258.635 46.4173 258.285 46.4035 257.903 46.3935C257.507 46.3847 252.708 46.0592 252.129 46.1356C251.75 46.183 252.866 46.6832 252.51 46.7557C251.759 46.9142 251.081 47.1306 250.551 47.4291C250.255 47.595 250.005 47.7841 249.815 48.0027C249.762 48.0614 249.714 48.1248 249.671 48.1904C249.329 48.7025 248.967 49.2108 248.611 49.6912C248.419 49.9523 248.229 50.202 248.041 50.4437C247.602 51.0112 247.189 51.5225 246.843 51.9368C246.603 52.2273 246.396 52.4716 246.239 52.6554C246.028 52.8993 245.904 53.0372 245.904 53.0372C245.904 53.0372 246.302 53.4264 247.331 53.8257C247.784 54.003 248.359 54.183 249.077 54.3302C249.863 54.4928 250.823 54.619 251.981 54.6656C252.385 54.683 252.816 54.6912 253.271 54.6857C254.071 54.6775 254.953 54.6345 255.917 54.5421C256.291 54.5093 256.676 54.4688 257.074 54.4189C257.787 54.331 258.545 54.2199 259.345 54.0793C259.7 54.0198 260.063 53.9523 260.434 53.8803C260.712 53.8263 260.993 53.769 261.28 53.7089C261.529 53.6571 261.779 53.6036 262.034 53.5454C262.267 53.4947 262.503 53.4393 262.741 53.3839Z" fill="#50E837"/>
<g opacity="0.32">
<path d="M262.741 53.3839C262.741 53.3839 262.717 53.1888 262.663 52.8572C262.544 52.151 262.276 50.8263 261.765 49.4603C261.397 48.4812 260.907 47.4785 260.256 46.6692C260.215 46.6154 260.171 46.5617 260.127 46.5113C260.127 46.5113 259.668 46.4694 258.94 46.4327C258.635 46.4173 258.285 46.4035 257.903 46.3936C260.37 49.4087 261.079 52.272 261.281 53.7089C261.529 53.6571 261.779 53.6036 262.034 53.5454C262.267 53.4947 262.503 53.4393 262.741 53.3839Z" fill="#50E837"/>
</g>
<path d="M269.181 34.4252L269.222 35.8298C269.21 35.9332 271.681 35.415 271.681 35.415C271.681 35.415 273.216 30.8025 273.162 30.4392C273.108 30.0762 272.275 31.498 272.275 31.498C272.275 31.498 272.792 29.985 272.678 29.4296C272.588 28.9875 271.659 31.0112 271.659 31.0112C271.832 30.1104 272.213 28.6702 271.934 28.5691C271.585 28.4423 270.913 31.0087 270.913 31.0087C270.913 31.0087 271.225 29.2783 270.93 29.0652C270.635 28.8521 269.6 32.2995 269.6 32.2995C269.6 32.2995 269.234 31.4872 268.444 31.2535C268.442 31.2529 268.44 31.2524 268.438 31.2518C268.18 31.1815 268 31.5104 268.174 31.7132C268.875 32.531 269.181 34.4252 269.181 34.4252Z" fill="#FCC0BF"/>
<path d="M220.656 42.3194L221.045 43.6698C221.089 43.7643 218.577 44.0242 218.577 44.0242C218.577 44.0242 215.709 40.0992 215.65 39.7367C215.59 39.3745 216.817 40.4749 216.817 40.4749C216.817 40.4749 215.864 39.1912 215.803 38.6279C215.754 38.1794 217.256 39.8236 217.256 39.8236C216.816 39.0184 216.015 37.7626 216.249 37.5815C216.543 37.3544 217.965 39.594 217.965 39.594C217.965 39.594 217.141 38.041 217.356 37.748C217.572 37.4553 219.609 40.4231 219.609 40.4231C219.609 40.4231 219.71 39.5377 220.391 39.0741C220.393 39.073 220.395 39.0719 220.397 39.0705C220.62 38.925 220.892 39.1835 220.789 39.4297C220.371 40.4217 220.656 42.3194 220.656 42.3194Z" fill="#FCC0BF"/>
<path d="M233.58 47.3654C233.58 47.3654 226.278 52.6424 220.064 41.8006L218.167 42.9445C218.167 42.9445 220.331 53.1154 226.877 54.9211C232.198 56.3888 237.386 54.2262 237.386 54.2262L233.58 47.3654Z" fill="#FCC0BF"/>
<path d="M247.552 44.8974C247.552 44.8974 247.528 44.9544 247.481 45.0572C247.374 45.2868 247.152 45.7469 246.811 46.3439C246.659 46.6091 246.485 46.8987 246.287 47.211C245.943 47.7494 245.53 48.3433 245.044 48.9475C244.822 49.2259 244.584 49.5068 244.331 49.7855C243.792 50.38 243.184 50.9649 242.51 51.5007C242.481 51.5222 242.452 51.5462 242.423 51.5677C242.072 51.8442 241.702 52.1038 241.32 52.3502C240.414 52.9371 239.448 53.4406 238.525 53.8643C238.413 53.9158 238.301 53.9655 238.192 54.0151C237.727 54.2218 237.276 54.4048 236.853 54.5683C236.502 54.705 236.171 54.8257 235.867 54.9316C234.714 55.3365 233.933 55.5355 233.933 55.5355C233.323 55.1413 232.822 54.5785 232.415 53.9382C232.206 53.6151 232.023 53.2698 231.86 52.918C231.55 52.2496 231.316 51.552 231.139 50.9051C231.046 50.5633 230.969 50.2331 230.905 49.9327C230.7 48.9577 230.643 48.2642 230.643 48.2642C230.834 48.1468 231.03 48.0324 231.225 47.9249C231.549 47.7403 231.879 47.568 232.21 47.4032C232.36 47.3312 232.512 47.2596 232.664 47.1904C233.928 46.6077 235.229 46.1631 236.512 45.8235C237.405 45.5867 238.292 45.4004 239.149 45.2562C240.746 44.9867 242.246 44.8615 243.522 44.8122C244.338 44.781 245.065 44.7794 245.667 44.7926C245.668 44.7951 245.673 44.7959 245.68 44.7946C246.848 44.8207 247.552 44.8974 247.552 44.8974Z" fill="#50E837"/>
<path d="M256.799 79.0171C256.621 80.7155 235.636 76.9314 233.157 74.8418C233.24 74.29 233.327 73.7489 233.41 73.2177C233.463 72.9077 233.512 72.6011 233.561 72.2985C233.74 71.2417 233.921 70.2244 234.108 69.2425C234.166 68.9352 234.225 68.6301 234.284 68.3291C234.448 67.4978 234.613 66.6951 234.782 65.9201C234.848 65.6119 234.916 65.3079 234.983 65.0099C235.156 64.2412 235.331 63.4978 235.508 62.785C235.585 62.476 235.66 62.1753 235.737 61.8787C235.953 61.0383 236.171 60.2354 236.392 59.4716C236.479 59.1643 236.568 58.8655 236.657 58.5705C236.823 58.014 236.989 57.4782 237.158 56.963C237.255 56.6571 237.355 56.3577 237.453 56.0664C237.612 55.5992 237.772 55.1505 237.927 54.7216C238.017 54.4801 238.104 54.2445 238.192 54.0151C238.215 53.9509 238.24 53.8889 238.263 53.8266C238.511 53.1813 238.756 52.5807 238.997 52.0206C239.129 51.7136 239.258 51.4203 239.387 51.1372C239.716 50.4236 240.029 49.7877 240.331 49.2177C240.496 48.909 240.656 48.6182 240.813 48.3475C241.221 47.6392 241.598 47.0614 241.934 46.5923C242.174 46.2555 242.394 45.9752 242.585 45.7442C243.152 45.0686 243.491 44.8214 243.491 44.8214C243.491 44.8214 243.499 44.8186 243.522 44.8136C243.651 44.7745 244.186 44.6557 245.531 44.7811L245.536 44.7817L245.665 44.7919C245.669 44.7965 245.673 44.7971 245.679 44.7938C246.172 44.8453 246.765 44.9275 247.48 45.0576C248.663 45.2687 250.169 45.6094 252.081 46.1389C252.957 46.3801 253.919 46.664 254.973 46.992C255.192 47.1543 255.397 47.3555 255.587 47.5896C255.826 47.8817 256.043 48.2282 256.24 48.6229C256.528 49.2009 256.774 49.8792 256.984 50.6428C257.067 50.9517 257.144 51.2784 257.219 51.6146C257.359 52.272 257.478 52.9774 257.576 53.7188C257.607 53.9468 257.634 54.1778 257.66 54.4131C257.67 54.4986 257.679 54.586 257.689 54.6733C257.756 55.2977 257.807 55.9443 257.851 56.6064C257.872 56.9209 257.888 57.2348 257.902 57.5565C257.918 57.8784 257.93 58.1998 257.943 58.5295C257.945 58.6406 257.95 58.7538 257.952 58.8668C257.953 58.9038 257.954 58.9388 257.955 58.976C257.962 59.2864 257.969 59.6009 257.975 59.9176C257.98 60.4738 257.983 61.0355 257.981 61.5967C257.98 61.863 257.976 62.1331 257.973 62.403C257.971 62.4476 257.973 62.489 257.971 62.5339C257.959 63.3663 257.938 64.1973 257.906 65.0251C257.898 65.2307 257.891 65.4369 257.882 65.6425C257.877 65.7483 257.872 65.8542 257.866 65.9578C257.834 66.7301 257.794 67.4928 257.747 68.2403C257.731 68.5557 257.71 68.8641 257.691 69.1709C257.636 70.0198 257.575 70.8409 257.512 71.6254C257.488 71.9416 257.462 72.2536 257.436 72.5532C257.34 73.6894 257.241 74.7329 257.151 75.6464C257.119 75.9719 257.087 76.2828 257.056 76.5736C256.942 77.6907 256.847 78.5361 256.799 79.0171Z" fill="#50E837"/>
<g opacity="0.32">
<path d="M252.083 46.1256C251.556 47.6686 249.924 49.3801 247.452 48.5256C245.005 47.6788 245.381 45.4007 245.533 44.7803L245.535 44.7805L245.666 44.7924C245.668 44.7949 245.673 44.7957 245.68 44.7943C246.171 44.8459 246.765 44.928 247.481 45.0567C248.663 45.2676 250.169 45.6033 252.083 46.1256Z" fill="white"/>
</g>
<g opacity="0.31">
<path d="M257.952 58.8668L254.006 53.5297L257.66 54.4131C257.67 54.4986 257.678 54.586 257.688 54.6733C257.755 55.2976 257.807 55.9443 257.85 56.6064C257.871 56.9209 257.888 57.2348 257.902 57.5565C257.918 57.8784 257.93 58.1998 257.942 58.5295C257.945 58.6405 257.949 58.7538 257.952 58.8668Z" fill="#29114D"/>
</g>
<g opacity="0.31">
<path d="M236.753 54.6948C236.753 54.6948 237.995 50.9699 241.114 48.3903C241.114 48.3903 239.808 50.3679 238.122 54.1513L236.753 54.6948Z" fill="#29114D"/>
</g>
<g opacity="0.32">
<path d="M235.866 54.9316C234.713 55.3365 233.933 55.5355 233.933 55.5355C233.322 55.1414 232.822 54.5785 232.414 53.9382C232.206 53.6152 232.022 53.2698 231.86 52.9181C231.549 52.2497 231.315 51.552 231.139 50.9051C231.045 50.5633 230.969 50.2331 230.904 49.9327C230.7 48.9578 230.642 48.2643 230.642 48.2643C230.834 48.1469 231.029 48.0325 231.224 47.925C231.549 47.7403 231.878 47.568 232.209 47.4032C232.557 48.7461 233.708 52.6356 235.866 54.9316Z" fill="white"/>
</g>
<path d="M245.759 35.9949C245.759 35.9949 244.676 39.3648 245.315 40.1286C245.315 40.1286 246.781 40.4415 246.666 36.9343C246.551 33.4271 245.759 35.9949 245.759 35.9949Z" fill="#2B1A82"/>
<path d="M246.745 39.5593C246.856 38.7766 246.28 38.0475 245.458 37.9309C244.636 37.8143 243.88 38.3543 243.769 39.137C243.658 39.9197 244.234 40.6487 245.056 40.7653C245.877 40.8819 246.634 40.342 246.745 39.5593Z" fill="#FCC0BF"/>
<path d="M247.182 47.3136C247.863 47.7138 248.481 47.8533 249.016 47.8483C250.133 47.8384 251.04 46.9793 251.074 45.9139C251.097 45.186 251.241 44.3219 251.404 43.5473C251.407 43.5358 251.409 43.5242 251.412 43.5126C251.653 42.3789 250.84 41.2736 249.636 41.1025L249 41.0123C247.814 40.8439 246.728 41.6386 246.593 42.7723C246.533 43.2797 246.473 43.7116 246.415 44.0788C246.346 44.5148 246.279 44.8599 246.217 45.1336C246.023 45.976 246.405 46.8577 247.182 47.3136Z" fill="#FCC0BF"/>
<g opacity="0.31">
<path d="M246.415 44.0788C246.672 44.2279 246.994 44.3566 247.393 44.4589C249.211 44.9219 250.66 44.1143 251.404 43.5473C251.649 42.388 251.938 41.4294 251.938 41.4294L246.801 40.7003C246.673 42.1992 246.539 43.2885 246.415 44.0788Z" fill="#29114D"/>
</g>
<path d="M253.547 36.9156C253.547 36.9156 254.425 44.7439 249.154 44.0945C243.358 43.3806 246.082 35.9961 246.082 35.9961C246.082 35.9961 250.083 31.71 253.547 36.9156Z" fill="#FCC0BF"/>
<path d="M253.051 41.6866C252.966 41.7674 252.653 39.139 253.345 37.1084C244.739 35.9129 244.711 37.6894 244.193 32.5138C244.193 32.5138 248.778 31.2655 252.307 32.7726C255.806 34.2669 254.534 37.29 254.534 37.29C254.534 37.29 255.051 39.7798 253.051 41.6866Z" fill="#2B1A82"/>
<path opacity="0.2" d="M254.175 35.8712C253.78 34.9652 253.051 34.2348 252.198 33.7499C251.217 33.1923 250.084 32.9718 248.967 32.925C248.287 32.8963 247.604 32.9263 246.927 32.995C246.863 33.0016 246.808 33.0451 246.808 33.1143C246.808 33.1739 246.863 33.2403 246.927 33.2337C248.079 33.1168 249.271 33.0942 250.408 33.3384C251.392 33.5496 252.327 33.9784 253.055 34.6841C253.441 35.0578 253.754 35.4986 253.969 35.9914C253.995 36.0507 254.082 36.0642 254.133 36.0341C254.193 35.9988 254.201 35.9305 254.175 35.8712Z" fill="white"/>
<path opacity="0.2" d="M253.17 35.9986C252.769 35.8225 252.368 35.6452 251.951 35.511C251.556 35.3837 251.148 35.2957 250.738 35.2351C249.902 35.1122 249.057 35.0976 248.214 35.0824C247.742 35.0739 247.27 35.0645 246.799 35.035C246.735 35.0309 246.68 35.0929 246.68 35.1543C246.68 35.2224 246.735 35.2698 246.799 35.2737C247.63 35.3255 248.464 35.3145 249.295 35.3481C250.112 35.3812 250.932 35.4589 251.719 35.6891C252.177 35.8227 252.614 36.0127 253.049 36.2042C253.108 36.2301 253.178 36.2216 253.213 36.1612C253.243 36.1113 253.229 36.0245 253.17 35.9986Z" fill="white"/>
<path opacity="0.2" d="M254.186 37.7753C254.186 37.7753 254.187 37.7753 254.187 37.775C254.166 37.775 254.144 37.775 254.123 37.775C254.124 37.775 254.124 37.7753 254.124 37.7753C254.107 37.7651 254.089 37.7549 254.072 37.7447C254.065 37.7394 254.045 37.6854 254.047 37.7064C254.048 37.7144 254.051 37.7226 254.053 37.7304C254.054 37.7361 254.054 37.7422 254.055 37.748C254.059 37.7684 254.054 37.7248 254.054 37.7406C254.055 37.7557 254.058 37.7711 254.059 37.7863C254.067 37.8734 254.07 37.9611 254.071 38.0484C254.072 38.2893 254.052 38.5308 254 38.7662C253.986 38.829 254.019 38.8955 254.083 38.9131C254.143 38.9296 254.216 38.893 254.23 38.8296C254.292 38.5515 254.315 38.2637 254.309 37.9793C254.306 37.885 254.301 37.791 254.288 37.6978C254.276 37.6118 254.232 37.5184 254.123 37.5449C253.973 37.5812 254.036 37.8117 254.186 37.7753Z" fill="white"/>
<path opacity="0.2" d="M246.316 33.0914C245.91 33.1488 245.502 33.184 245.092 33.1992C245.028 33.2017 244.973 33.2524 244.973 33.3186C244.973 33.3814 245.028 33.4404 245.092 33.4379C245.523 33.4219 245.952 33.3822 246.379 33.3216C246.443 33.3125 246.478 33.2312 246.463 33.1747C246.444 33.106 246.38 33.0823 246.316 33.0914Z" fill="white"/>
<path d="M253.888 37.6124C253.888 37.6124 252.294 37.2816 251.257 37.4685C251.257 37.4685 252.912 36.9451 253.471 37.1534C254.03 37.3616 253.888 37.6124 253.888 37.6124Z" fill="#2B1A82"/>
<path d="M254.928 40.9439C255.034 40.1973 254.485 39.502 253.701 39.3908C252.917 39.2796 252.196 39.7947 252.09 40.5412C251.984 41.2877 252.534 41.983 253.317 42.0942C254.101 42.2054 254.822 41.6904 254.928 40.9439Z" fill="#FCC0BF"/>
<path d="M249.543 41.4939L247.331 41.0868C247.331 41.0868 247.189 42.7458 248.312 42.7185C249.436 42.6912 249.543 41.4939 249.543 41.4939Z" fill="#29114D"/>
<path d="M250.373 39.5275C250.612 39.5275 250.805 39.3337 250.805 39.0947C250.805 38.8557 250.612 38.662 250.373 38.662C250.134 38.662 249.94 38.8557 249.94 39.0947C249.94 39.3337 250.134 39.5275 250.373 39.5275Z" fill="#29114D"/>
<path d="M247.354 39.1193C247.593 39.1193 247.786 38.9255 247.786 38.6865C247.786 38.4475 247.593 38.2538 247.354 38.2538C247.115 38.2538 246.921 38.4475 246.921 38.6865C246.921 38.9255 247.115 39.1193 247.354 39.1193Z" fill="#29114D"/>
<path d="M254.533 37.2896C254.533 37.2896 255.028 36.5261 255.068 35.7042C255.068 35.7042 254.5 36.6813 254.191 36.9134C253.882 37.1452 254.533 37.2896 254.533 37.2896Z" fill="#2B1A82"/>
<path d="M254.455 37.3356C254.455 37.3356 254.683 38.2394 254.63 38.861C254.63 38.861 254.934 37.8629 254.503 37.0049C254.071 36.1465 254.455 37.3356 254.455 37.3356Z" fill="#2B1A82"/>
<path d="M251.251 32.4068C251.251 32.4068 249.936 32.0201 247.244 31.7593L249.224 32.2497" fill="#2B1A82"/>
</g>
<defs>
<filter id="filter0_d" x="208.347" y="39.2648" width="131.49" height="127.655" filterUnits="userSpaceOnUse" color-interpolation-filters="sRGB">
<feFlood flood-opacity="0" result="BackgroundImageFix"/>
<feColorMatrix in="SourceAlpha" type="matrix" values="0 0 0 0 0 0 0 0 0 0 0 0 0 0 0 0 0 0 127 0"/>
<feOffset dx="10" dy="10"/>
<feGaussianBlur stdDeviation="2.5"/>
<feColorMatrix type="matrix" values="0 0 0 0 0.141176 0 0 0 0 0.152941 0 0 0 0 0.192157 0 0 0 0.25 0"/>
<feBlend mode="normal" in2="BackgroundImageFix" result="effect1_dropShadow"/>
<feBlend mode="normal" in="SourceGraphic" in2="effect1_dropShadow" result="shape"/>
</filter>
<filter id="filter1_d" x="172.721" y="28.5645" width="137.598" height="149.729" filterUnits="userSpaceOnUse" color-interpolation-filters="sRGB">
<feFlood flood-opacity="0" result="BackgroundImageFix"/>
<feColorMatrix in="SourceAlpha" type="matrix" values="0 0 0 0 0 0 0 0 0 0 0 0 0 0 0 0 0 0 127 0"/>
<feOffset dx="10" dy="10"/>
<feGaussianBlur stdDeviation="2.5"/>
<feColorMatrix type="matrix" values="0 0 0 0 0.141176 0 0 0 0 0.152941 0 0 0 0 0.192157 0 0 0 0.25 0"/>
<feBlend mode="normal" in2="BackgroundImageFix" result="effect1_dropShadow"/>
<feBlend mode="normal" in="SourceGraphic" in2="effect1_dropShadow" result="shape"/>
</filter>
</defs>
</svg>
